<?xml version="1.0" encoding="utf-8" standalone="no"?>
<!DOCTYPE svg PUBLIC "-//W3C//DTD SVG 1.1//EN"
  "http://www.w3.org/Graphics/SVG/1.1/DTD/svg11.dtd">
<!-- Created with matplotlib (https://matplotlib.org/) -->
<svg height="360pt" version="1.1" viewBox="0 0 720 360" width="720pt" xmlns="http://www.w3.org/2000/svg" xmlns:xlink="http://www.w3.org/1999/xlink">
 <defs>
  <style type="text/css">
*{stroke-linecap:butt;stroke-linejoin:round;}
  </style>
 </defs>
 <g id="figure_1">
  <g id="patch_1">
   <path d="M 0 360 
L 720 360 
L 720 0 
L 0 0 
z
" style="fill:#ffffff;"/>
  </g>
  <g id="axes_1">
   <g id="patch_2">
    <path d="M 90 320.4 
L 648 320.4 
L 648 43.2 
L 90 43.2 
z
" style="fill:#ffffff;"/>
   </g>
   <g id="PolyCollection_1">
    <defs>
     <path d="M 115.363636 -80.441379 
L 115.363636 -52.2 
L 115.871417 -54.372414 
L 116.379197 -53.286207 
L 116.886978 -60.889655 
L 117.394758 -67.406897 
L 117.902539 -65.234483 
L 118.410319 -63.062069 
L 118.9181 -65.234483 
L 119.42588 -72.837931 
L 119.933661 -66.32069 
L 120.441441 -69.57931 
L 120.949222 -77.182759 
L 121.457002 -75.010345 
L 121.964783 -71.751724 
L 122.472563 -82.613793 
L 122.980344 -76.096552 
L 123.488124 -88.044828 
L 123.995905 -86.958621 
L 124.503686 -81.527586 
L 125.011466 -99.993103 
L 125.519247 -92.389655 
L 126.027027 -83.7 
L 126.534808 -96.734483 
L 127.042588 -83.7 
L 127.550369 -103.251724 
L 128.058149 -110.855172 
L 128.56593 -107.596552 
L 129.07371 -94.562069 
L 129.581491 -99.993103 
L 130.089271 -105.424138 
L 130.597052 -109.768966 
L 131.104832 -113.027586 
L 131.612613 -108.682759 
L 132.120393 -117.372414 
L 132.628174 -119.544828 
L 133.135954 -118.458621 
L 133.643735 -120.631034 
L 134.151515 -109.768966 
L 134.659296 -129.32069 
L 135.167076 -124.975862 
L 135.674857 -134.751724 
L 136.182637 -134.751724 
L 136.690418 -124.975862 
L 137.198198 -111.941379 
L 137.705979 -121.717241 
L 138.213759 -136.924138 
L 138.72154 -126.062069 
L 139.22932 -126.062069 
L 139.737101 -121.717241 
L 140.244881 -128.234483 
L 140.752662 -130.406897 
L 141.260442 -126.062069 
L 141.768223 -124.975862 
L 142.276003 -153.217241 
L 142.783784 -135.837931 
L 143.291564 -132.57931 
L 143.799345 -171.682759 
L 144.307125 -148.872414 
L 144.814906 -138.010345 
L 145.322686 -165.165517 
L 145.830467 -155.389655 
L 146.338247 -157.562069 
L 146.846028 -147.786207 
L 147.353808 -169.510345 
L 147.861589 -162.993103 
L 148.369369 -176.027586 
L 148.87715 -173.855172 
L 149.38493 -199.924138 
L 149.892711 -207.527586 
L 150.400491 -164.07931 
L 150.908272 -198.837931 
L 151.416052 -182.544828 
L 151.923833 -191.234483 
L 152.431613 -209.7 
L 152.939394 -178.2 
L 153.447174 -168.424138 
L 153.954955 -192.32069 
L 154.462735 -168.424138 
L 154.970516 -176.027586 
L 155.478296 -193.406897 
L 155.986077 -215.131034 
L 156.493857 -202.096552 
L 157.001638 -215.131034 
L 157.509419 -207.527586 
L 158.017199 -201.010345 
L 158.52498 -205.355172 
L 159.03276 -193.406897 
L 159.540541 -239.027586 
L 160.048321 -227.07931 
L 160.556102 -187.975862 
L 161.063882 -199.924138 
L 161.571663 -209.7 
L 162.079443 -224.906897 
L 162.587224 -212.958621 
L 163.095004 -243.372414 
L 163.602785 -208.613793 
L 164.110565 -243.372414 
L 164.618346 -204.268966 
L 165.126126 -245.544828 
L 165.633907 -240.113793 
L 166.141687 -227.07931 
L 166.649468 -234.682759 
L 167.157248 -229.251724 
L 167.665029 -243.372414 
L 168.172809 -211.872414 
L 168.68059 -242.286207 
L 169.18837 -229.251724 
L 169.696151 -232.510345 
L 170.203931 -233.596552 
L 170.711712 -270.527586 
L 171.219492 -241.2 
L 171.727273 -274.872414 
L 172.235053 -242.286207 
L 172.742834 -259.665517 
L 173.250614 -256.406897 
L 173.758395 -260.751724 
L 174.266175 -245.544828 
L 174.773956 -284.648276 
L 175.281736 -221.648276 
L 175.789517 -304.2 
L 176.297297 -253.148276 
L 176.805078 -288.993103 
L 177.312858 -285.734483 
L 177.820639 -295.510345 
L 178.328419 -299.855172 
L 178.8362 -304.2 
L 179.34398 -304.2 
L 179.851761 -280.303448 
L 180.359541 -304.2 
L 180.867322 -304.2 
L 181.375102 -283.562069 
L 181.882883 -304.2 
L 182.390663 -304.2 
L 182.898444 -261.837931 
L 183.406224 -249.889655 
L 183.914005 -304.2 
L 184.421785 -304.2 
L 184.929566 -271.613793 
L 185.437346 -299.855172 
L 185.945127 -304.2 
L 186.452907 -304.2 
L 186.960688 -304.2 
L 187.468468 -248.803448 
L 187.976249 -299.855172 
L 188.484029 -304.2 
L 188.99181 -281.389655 
L 189.49959 -304.2 
L 190.007371 -304.2 
L 190.515152 -304.2 
L 191.022932 -304.2 
L 191.530713 -304.2 
L 192.038493 -304.2 
L 192.546274 -304.2 
L 193.054054 -304.2 
L 193.561835 -304.2 
L 194.069615 -304.2 
L 194.577396 -304.2 
L 195.085176 -257.493103 
L 195.592957 -304.2 
L 196.100737 -304.2 
L 196.608518 -304.2 
L 197.116298 -300.941379 
L 197.624079 -304.2 
L 198.131859 -304.2 
L 198.63964 -304.2 
L 199.14742 -304.2 
L 199.655201 -304.2 
L 200.162981 -304.2 
L 200.670762 -304.2 
L 201.178542 -304.2 
L 201.686323 -304.2 
L 202.194103 -304.2 
L 202.701884 -304.2 
L 203.209664 -304.2 
L 203.717445 -304.2 
L 204.225225 -304.2 
L 204.733006 -304.2 
L 205.240786 -304.2 
L 205.748567 -304.2 
L 206.256347 -304.2 
L 206.764128 -304.2 
L 207.271908 -304.2 
L 207.779689 -304.2 
L 208.287469 -304.2 
L 208.79525 -304.2 
L 209.30303 -304.2 
L 209.810811 -304.2 
L 210.318591 -304.2 
L 210.826372 -304.2 
L 211.334152 -304.2 
L 211.841933 -304.2 
L 212.349713 -304.2 
L 212.857494 -304.2 
L 213.365274 -304.2 
L 213.873055 -304.2 
L 214.380835 -304.2 
L 214.888616 -304.2 
L 215.396396 -304.2 
L 215.904177 -304.2 
L 216.411957 -304.2 
L 216.919738 -304.2 
L 217.427518 -304.2 
L 217.935299 -304.2 
L 218.443079 -304.2 
L 218.95086 -304.2 
L 219.45864 -304.2 
L 219.966421 -304.2 
L 220.474201 -304.2 
L 220.981982 -304.2 
L 221.489762 -304.2 
L 221.997543 -304.2 
L 222.505324 -304.2 
L 223.013104 -304.2 
L 223.520885 -304.2 
L 224.028665 -304.2 
L 224.536446 -304.2 
L 225.044226 -304.2 
L 225.552007 -304.2 
L 226.059787 -304.2 
L 226.567568 -304.2 
L 227.075348 -304.2 
L 227.583129 -304.2 
L 228.090909 -304.2 
L 228.59869 -304.2 
L 229.10647 -304.2 
L 229.614251 -304.2 
L 230.122031 -304.2 
L 230.629812 -304.2 
L 231.137592 -304.2 
L 231.645373 -304.2 
L 232.153153 -304.2 
L 232.660934 -304.2 
L 233.168714 -304.2 
L 233.676495 -304.2 
L 234.184275 -304.2 
L 234.692056 -304.2 
L 235.199836 -304.2 
L 235.707617 -304.2 
L 236.215397 -304.2 
L 236.723178 -304.2 
L 237.230958 -304.2 
L 237.738739 -304.2 
L 238.246519 -304.2 
L 238.7543 -304.2 
L 239.26208 -304.2 
L 239.769861 -304.2 
L 240.277641 -304.2 
L 240.785422 -304.2 
L 241.293202 -304.2 
L 241.800983 -304.2 
L 242.308763 -304.2 
L 242.816544 -304.2 
L 243.324324 -304.2 
L 243.832105 -304.2 
L 244.339885 -304.2 
L 244.847666 -304.2 
L 245.355446 -304.2 
L 245.863227 -304.2 
L 246.371007 -304.2 
L 246.878788 -304.2 
L 247.386568 -304.2 
L 247.894349 -304.2 
L 248.402129 -304.2 
L 248.90991 -304.2 
L 249.41769 -304.2 
L 249.925471 -304.2 
L 250.433251 -304.2 
L 250.941032 -304.2 
L 251.448812 -304.2 
L 251.956593 -304.2 
L 252.464373 -304.2 
L 252.972154 -304.2 
L 253.479934 -304.2 
L 253.987715 -304.2 
L 254.495495 -304.2 
L 255.003276 -304.2 
L 255.511057 -304.2 
L 256.018837 -304.2 
L 256.526618 -304.2 
L 257.034398 -304.2 
L 257.542179 -304.2 
L 258.049959 -304.2 
L 258.55774 -304.2 
L 259.06552 -304.2 
L 259.573301 -304.2 
L 260.081081 -304.2 
L 260.588862 -304.2 
L 261.096642 -304.2 
L 261.604423 -304.2 
L 262.112203 -304.2 
L 262.619984 -304.2 
L 263.127764 -304.2 
L 263.635545 -304.2 
L 264.143325 -304.2 
L 264.651106 -304.2 
L 265.158886 -304.2 
L 265.666667 -304.2 
L 266.174447 -304.2 
L 266.682228 -304.2 
L 267.190008 -304.2 
L 267.697789 -304.2 
L 268.205569 -304.2 
L 268.71335 -304.2 
L 269.22113 -304.2 
L 269.728911 -304.2 
L 270.236691 -304.2 
L 270.744472 -304.2 
L 271.252252 -304.2 
L 271.760033 -304.2 
L 272.267813 -304.2 
L 272.775594 -304.2 
L 273.283374 -304.2 
L 273.791155 -304.2 
L 274.298935 -304.2 
L 274.806716 -304.2 
L 275.314496 -304.2 
L 275.822277 -304.2 
L 276.330057 -304.2 
L 276.837838 -304.2 
L 277.345618 -304.2 
L 277.853399 -304.2 
L 278.361179 -304.2 
L 278.86896 -304.2 
L 279.37674 -304.2 
L 279.884521 -304.2 
L 280.392301 -304.2 
L 280.900082 -304.2 
L 281.407862 -304.2 
L 281.915643 -304.2 
L 282.423423 -304.2 
L 282.931204 -304.2 
L 283.438984 -304.2 
L 283.946765 -304.2 
L 284.454545 -304.2 
L 284.962326 -304.2 
L 285.470106 -304.2 
L 285.977887 -304.2 
L 286.485667 -304.2 
L 286.993448 -304.2 
L 287.501229 -304.2 
L 288.009009 -304.2 
L 288.51679 -304.2 
L 289.02457 -304.2 
L 289.532351 -304.2 
L 290.040131 -304.2 
L 290.547912 -304.2 
L 291.055692 -304.2 
L 291.563473 -304.2 
L 292.071253 -304.2 
L 292.579034 -304.2 
L 293.086814 -304.2 
L 293.594595 -304.2 
L 294.102375 -304.2 
L 294.610156 -304.2 
L 295.117936 -304.2 
L 295.625717 -304.2 
L 296.133497 -304.2 
L 296.641278 -304.2 
L 297.149058 -304.2 
L 297.656839 -304.2 
L 298.164619 -304.2 
L 298.6724 -304.2 
L 299.18018 -304.2 
L 299.687961 -304.2 
L 300.195741 -304.2 
L 300.703522 -304.2 
L 301.211302 -304.2 
L 301.719083 -304.2 
L 302.226863 -304.2 
L 302.734644 -304.2 
L 303.242424 -304.2 
L 303.750205 -304.2 
L 304.257985 -304.2 
L 304.765766 -304.2 
L 305.273546 -304.2 
L 305.781327 -304.2 
L 306.289107 -304.2 
L 306.796888 -304.2 
L 307.304668 -304.2 
L 307.812449 -304.2 
L 308.320229 -304.2 
L 308.82801 -304.2 
L 309.33579 -304.2 
L 309.843571 -304.2 
L 310.351351 -304.2 
L 310.859132 -304.2 
L 311.366912 -304.2 
L 311.874693 -304.2 
L 312.382473 -304.2 
L 312.890254 -304.2 
L 313.398034 -304.2 
L 313.905815 -304.2 
L 314.413595 -304.2 
L 314.921376 -304.2 
L 315.429156 -304.2 
L 315.936937 -304.2 
L 316.444717 -304.2 
L 316.952498 -304.2 
L 317.460278 -304.2 
L 317.968059 -304.2 
L 318.475839 -304.2 
L 318.98362 -304.2 
L 319.4914 -304.2 
L 319.999181 -304.2 
L 320.506962 -304.2 
L 321.014742 -304.2 
L 321.522523 -304.2 
L 322.030303 -304.2 
L 322.538084 -304.2 
L 323.045864 -304.2 
L 323.553645 -304.2 
L 324.061425 -304.2 
L 324.569206 -304.2 
L 325.076986 -304.2 
L 325.584767 -304.2 
L 326.092547 -304.2 
L 326.600328 -304.2 
L 327.108108 -304.2 
L 327.615889 -304.2 
L 328.123669 -304.2 
L 328.63145 -304.2 
L 329.13923 -304.2 
L 329.647011 -304.2 
L 330.154791 -304.2 
L 330.662572 -304.2 
L 331.170352 -304.2 
L 331.678133 -304.2 
L 332.185913 -304.2 
L 332.693694 -304.2 
L 333.201474 -304.2 
L 333.709255 -304.2 
L 334.217035 -304.2 
L 334.724816 -304.2 
L 335.232596 -304.2 
L 335.740377 -304.2 
L 336.248157 -304.2 
L 336.755938 -304.2 
L 337.263718 -304.2 
L 337.771499 -304.2 
L 338.279279 -304.2 
L 338.78706 -304.2 
L 339.29484 -304.2 
L 339.802621 -304.2 
L 340.310401 -304.2 
L 340.818182 -304.2 
L 341.325962 -304.2 
L 341.833743 -304.2 
L 342.341523 -304.2 
L 342.849304 -304.2 
L 343.357084 -304.2 
L 343.864865 -304.2 
L 344.372645 -304.2 
L 344.880426 -304.2 
L 345.388206 -304.2 
L 345.895987 -304.2 
L 346.403767 -304.2 
L 346.911548 -304.2 
L 347.419328 -304.2 
L 347.927109 -304.2 
L 348.434889 -304.2 
L 348.94267 -304.2 
L 349.45045 -304.2 
L 349.958231 -304.2 
L 350.466011 -304.2 
L 350.973792 -304.2 
L 351.481572 -304.2 
L 351.989353 -304.2 
L 352.497133 -304.2 
L 353.004914 -304.2 
L 353.512695 -304.2 
L 354.020475 -304.2 
L 354.528256 -304.2 
L 355.036036 -304.2 
L 355.543817 -304.2 
L 356.051597 -304.2 
L 356.559378 -304.2 
L 357.067158 -304.2 
L 357.574939 -304.2 
L 358.082719 -304.2 
L 358.5905 -304.2 
L 359.09828 -304.2 
L 359.606061 -304.2 
L 360.113841 -304.2 
L 360.621622 -304.2 
L 361.129402 -304.2 
L 361.637183 -304.2 
L 362.144963 -304.2 
L 362.652744 -304.2 
L 363.160524 -304.2 
L 363.668305 -304.2 
L 364.176085 -304.2 
L 364.683866 -304.2 
L 365.191646 -304.2 
L 365.699427 -304.2 
L 366.207207 -304.2 
L 366.714988 -304.2 
L 367.222768 -304.2 
L 367.730549 -304.2 
L 368.238329 -304.2 
L 368.74611 -304.2 
L 369.25389 -304.2 
L 369.761671 -304.2 
L 370.269451 -304.2 
L 370.777232 -304.2 
L 371.285012 -304.2 
L 371.792793 -304.2 
L 372.300573 -304.2 
L 372.808354 -304.2 
L 373.316134 -304.2 
L 373.823915 -304.2 
L 374.331695 -304.2 
L 374.839476 -304.2 
L 375.347256 -304.2 
L 375.855037 -304.2 
L 376.362817 -304.2 
L 376.870598 -304.2 
L 377.378378 -304.2 
L 377.886159 -304.2 
L 378.393939 -304.2 
L 378.90172 -304.2 
L 379.4095 -304.2 
L 379.917281 -304.2 
L 380.425061 -304.2 
L 380.932842 -304.2 
L 381.440622 -304.2 
L 381.948403 -304.2 
L 382.456183 -304.2 
L 382.963964 -304.2 
L 383.471744 -304.2 
L 383.979525 -304.2 
L 384.487305 -304.2 
L 384.995086 -304.2 
L 385.502867 -304.2 
L 386.010647 -304.2 
L 386.518428 -304.2 
L 387.026208 -304.2 
L 387.533989 -304.2 
L 388.041769 -304.2 
L 388.54955 -304.2 
L 389.05733 -304.2 
L 389.565111 -304.2 
L 390.072891 -304.2 
L 390.580672 -304.2 
L 391.088452 -304.2 
L 391.596233 -304.2 
L 392.104013 -304.2 
L 392.611794 -304.2 
L 393.119574 -304.2 
L 393.627355 -304.2 
L 394.135135 -304.2 
L 394.642916 -304.2 
L 395.150696 -304.2 
L 395.658477 -304.2 
L 396.166257 -304.2 
L 396.674038 -304.2 
L 397.181818 -304.2 
L 397.689599 -304.2 
L 398.197379 -304.2 
L 398.70516 -304.2 
L 399.21294 -304.2 
L 399.720721 -304.2 
L 400.228501 -304.2 
L 400.736282 -304.2 
L 401.244062 -304.2 
L 401.751843 -304.2 
L 402.259623 -304.2 
L 402.767404 -304.2 
L 403.275184 -304.2 
L 403.782965 -304.2 
L 404.290745 -304.2 
L 404.798526 -304.2 
L 405.306306 -304.2 
L 405.814087 -304.2 
L 406.321867 -304.2 
L 406.829648 -304.2 
L 407.337428 -304.2 
L 407.845209 -304.2 
L 408.352989 -304.2 
L 408.86077 -304.2 
L 409.36855 -304.2 
L 409.876331 -304.2 
L 410.384111 -304.2 
L 410.891892 -304.2 
L 411.399672 -304.2 
L 411.907453 -304.2 
L 412.415233 -304.2 
L 412.923014 -304.2 
L 413.430794 -304.2 
L 413.938575 -304.2 
L 414.446355 -304.2 
L 414.954136 -304.2 
L 415.461916 -304.2 
L 415.969697 -304.2 
L 416.477477 -304.2 
L 416.985258 -304.2 
L 417.493038 -304.2 
L 418.000819 -304.2 
L 418.5086 -304.2 
L 419.01638 -304.2 
L 419.524161 -304.2 
L 420.031941 -304.2 
L 420.539722 -304.2 
L 421.047502 -304.2 
L 421.555283 -304.2 
L 422.063063 -304.2 
L 422.570844 -304.2 
L 423.078624 -304.2 
L 423.586405 -304.2 
L 424.094185 -304.2 
L 424.601966 -304.2 
L 425.109746 -304.2 
L 425.617527 -304.2 
L 426.125307 -304.2 
L 426.633088 -304.2 
L 427.140868 -304.2 
L 427.648649 -304.2 
L 428.156429 -304.2 
L 428.66421 -304.2 
L 429.17199 -304.2 
L 429.679771 -304.2 
L 430.187551 -304.2 
L 430.695332 -304.2 
L 431.203112 -304.2 
L 431.710893 -304.2 
L 432.218673 -304.2 
L 432.726454 -304.2 
L 433.234234 -304.2 
L 433.742015 -304.2 
L 434.249795 -304.2 
L 434.757576 -304.2 
L 435.265356 -304.2 
L 435.773137 -304.2 
L 436.280917 -304.2 
L 436.788698 -304.2 
L 437.296478 -304.2 
L 437.804259 -304.2 
L 438.312039 -304.2 
L 438.81982 -304.2 
L 439.3276 -304.2 
L 439.835381 -304.2 
L 440.343161 -304.2 
L 440.850942 -304.2 
L 441.358722 -304.2 
L 441.866503 -304.2 
L 442.374283 -304.2 
L 442.882064 -304.2 
L 443.389844 -304.2 
L 443.897625 -304.2 
L 444.405405 -304.2 
L 444.913186 -304.2 
L 445.420966 -304.2 
L 445.928747 -304.2 
L 446.436527 -304.2 
L 446.944308 -304.2 
L 447.452088 -304.2 
L 447.959869 -304.2 
L 448.467649 -304.2 
L 448.97543 -304.2 
L 449.48321 -304.2 
L 449.990991 -304.2 
L 450.498771 -304.2 
L 451.006552 -304.2 
L 451.514333 -304.2 
L 452.022113 -304.2 
L 452.529894 -304.2 
L 453.037674 -304.2 
L 453.545455 -304.2 
L 454.053235 -304.2 
L 454.561016 -304.2 
L 455.068796 -304.2 
L 455.576577 -304.2 
L 456.084357 -304.2 
L 456.592138 -304.2 
L 457.099918 -304.2 
L 457.607699 -304.2 
L 458.115479 -304.2 
L 458.62326 -304.2 
L 459.13104 -304.2 
L 459.638821 -304.2 
L 460.146601 -304.2 
L 460.654382 -304.2 
L 461.162162 -304.2 
L 461.669943 -304.2 
L 462.177723 -304.2 
L 462.685504 -304.2 
L 463.193284 -304.2 
L 463.701065 -304.2 
L 464.208845 -304.2 
L 464.716626 -304.2 
L 465.224406 -304.2 
L 465.732187 -304.2 
L 466.239967 -304.2 
L 466.747748 -304.2 
L 467.255528 -304.2 
L 467.763309 -304.2 
L 468.271089 -304.2 
L 468.77887 -304.2 
L 469.28665 -304.2 
L 469.794431 -304.2 
L 470.302211 -304.2 
L 470.809992 -304.2 
L 471.317772 -304.2 
L 471.825553 -304.2 
L 472.333333 -304.2 
L 472.841114 -304.2 
L 473.348894 -304.2 
L 473.856675 -304.2 
L 474.364455 -304.2 
L 474.872236 -304.2 
L 475.380016 -304.2 
L 475.887797 -304.2 
L 476.395577 -304.2 
L 476.903358 -304.2 
L 477.411138 -304.2 
L 477.918919 -304.2 
L 478.426699 -304.2 
L 478.93448 -304.2 
L 479.44226 -304.2 
L 479.950041 -304.2 
L 480.457821 -304.2 
L 480.965602 -304.2 
L 481.473382 -304.2 
L 481.981163 -304.2 
L 482.488943 -304.2 
L 482.996724 -304.2 
L 483.504505 -304.2 
L 484.012285 -304.2 
L 484.520066 -304.2 
L 485.027846 -304.2 
L 485.535627 -304.2 
L 486.043407 -304.2 
L 486.551188 -304.2 
L 487.058968 -304.2 
L 487.566749 -304.2 
L 488.074529 -304.2 
L 488.58231 -304.2 
L 489.09009 -304.2 
L 489.597871 -304.2 
L 490.105651 -304.2 
L 490.613432 -304.2 
L 491.121212 -304.2 
L 491.628993 -304.2 
L 492.136773 -304.2 
L 492.644554 -304.2 
L 493.152334 -304.2 
L 493.660115 -304.2 
L 494.167895 -304.2 
L 494.675676 -304.2 
L 495.183456 -304.2 
L 495.691237 -304.2 
L 496.199017 -304.2 
L 496.706798 -304.2 
L 497.214578 -304.2 
L 497.722359 -304.2 
L 498.230139 -304.2 
L 498.73792 -304.2 
L 499.2457 -304.2 
L 499.753481 -304.2 
L 500.261261 -304.2 
L 500.769042 -304.2 
L 501.276822 -304.2 
L 501.784603 -304.2 
L 502.292383 -304.2 
L 502.800164 -304.2 
L 503.307944 -304.2 
L 503.815725 -304.2 
L 504.323505 -304.2 
L 504.831286 -304.2 
L 505.339066 -304.2 
L 505.846847 -304.2 
L 506.354627 -304.2 
L 506.862408 -304.2 
L 507.370188 -304.2 
L 507.877969 -304.2 
L 508.385749 -304.2 
L 508.89353 -304.2 
L 509.40131 -304.2 
L 509.909091 -304.2 
L 510.416871 -304.2 
L 510.924652 -304.2 
L 511.432432 -304.2 
L 511.940213 -304.2 
L 512.447993 -304.2 
L 512.955774 -304.2 
L 513.463554 -304.2 
L 513.971335 -304.2 
L 514.479115 -304.2 
L 514.986896 -304.2 
L 515.494676 -304.2 
L 516.002457 -304.2 
L 516.510238 -304.2 
L 517.018018 -304.2 
L 517.525799 -304.2 
L 518.033579 -304.2 
L 518.54136 -304.2 
L 519.04914 -304.2 
L 519.556921 -304.2 
L 520.064701 -304.2 
L 520.572482 -304.2 
L 521.080262 -304.2 
L 521.588043 -304.2 
L 522.095823 -304.2 
L 522.603604 -304.2 
L 523.111384 -304.2 
L 523.619165 -304.2 
L 524.126945 -304.2 
L 524.634726 -304.2 
L 525.142506 -304.2 
L 525.650287 -304.2 
L 526.158067 -304.2 
L 526.665848 -304.2 
L 527.173628 -304.2 
L 527.681409 -304.2 
L 528.189189 -304.2 
L 528.69697 -304.2 
L 529.20475 -304.2 
L 529.712531 -304.2 
L 530.220311 -304.2 
L 530.728092 -304.2 
L 531.235872 -304.2 
L 531.743653 -304.2 
L 532.251433 -304.2 
L 532.759214 -304.2 
L 533.266994 -304.2 
L 533.774775 -304.2 
L 534.282555 -304.2 
L 534.790336 -304.2 
L 535.298116 -304.2 
L 535.805897 -304.2 
L 536.313677 -304.2 
L 536.821458 -304.2 
L 537.329238 -304.2 
L 537.837019 -304.2 
L 538.344799 -304.2 
L 538.85258 -304.2 
L 539.36036 -304.2 
L 539.868141 -304.2 
L 540.375921 -304.2 
L 540.883702 -304.2 
L 541.391482 -304.2 
L 541.899263 -304.2 
L 542.407043 -304.2 
L 542.914824 -304.2 
L 543.422604 -304.2 
L 543.930385 -304.2 
L 544.438165 -304.2 
L 544.945946 -304.2 
L 545.453726 -304.2 
L 545.961507 -304.2 
L 546.469287 -304.2 
L 546.977068 -304.2 
L 547.484848 -304.2 
L 547.992629 -304.2 
L 548.50041 -304.2 
L 549.00819 -304.2 
L 549.515971 -304.2 
L 550.023751 -304.2 
L 550.531532 -304.2 
L 551.039312 -304.2 
L 551.547093 -304.2 
L 552.054873 -304.2 
L 552.562654 -304.2 
L 553.070434 -304.2 
L 553.578215 -304.2 
L 554.085995 -304.2 
L 554.593776 -304.2 
L 555.101556 -304.2 
L 555.609337 -304.2 
L 556.117117 -304.2 
L 556.624898 -304.2 
L 557.132678 -304.2 
L 557.640459 -304.2 
L 558.148239 -304.2 
L 558.65602 -304.2 
L 559.1638 -304.2 
L 559.671581 -304.2 
L 560.179361 -304.2 
L 560.687142 -304.2 
L 561.194922 -304.2 
L 561.702703 -304.2 
L 562.210483 -304.2 
L 562.718264 -304.2 
L 563.226044 -304.2 
L 563.733825 -304.2 
L 564.241605 -304.2 
L 564.749386 -304.2 
L 565.257166 -304.2 
L 565.764947 -304.2 
L 566.272727 -304.2 
L 566.780508 -304.2 
L 567.288288 -304.2 
L 567.796069 -304.2 
L 568.303849 -304.2 
L 568.81163 -304.2 
L 569.31941 -304.2 
L 569.827191 -304.2 
L 570.334971 -304.2 
L 570.842752 -304.2 
L 571.350532 -304.2 
L 571.858313 -304.2 
L 572.366093 -304.2 
L 572.873874 -304.2 
L 573.381654 -304.2 
L 573.889435 -304.2 
L 574.397215 -304.2 
L 574.904996 -304.2 
L 575.412776 -304.2 
L 575.920557 -304.2 
L 576.428337 -304.2 
L 576.936118 -304.2 
L 577.443898 -304.2 
L 577.951679 -304.2 
L 578.459459 -304.2 
L 578.96724 -304.2 
L 579.47502 -304.2 
L 579.982801 -304.2 
L 580.490581 -304.2 
L 580.998362 -304.2 
L 581.506143 -304.2 
L 582.013923 -304.2 
L 582.521704 -304.2 
L 583.029484 -304.2 
L 583.537265 -304.2 
L 584.045045 -304.2 
L 584.552826 -304.2 
L 585.060606 -304.2 
L 585.568387 -304.2 
L 586.076167 -304.2 
L 586.583948 -304.2 
L 587.091728 -304.2 
L 587.599509 -304.2 
L 588.107289 -304.2 
L 588.61507 -304.2 
L 589.12285 -304.2 
L 589.630631 -304.2 
L 590.138411 -304.2 
L 590.646192 -304.2 
L 591.153972 -304.2 
L 591.661753 -304.2 
L 592.169533 -304.2 
L 592.677314 -304.2 
L 593.185094 -304.2 
L 593.692875 -304.2 
L 594.200655 -304.2 
L 594.708436 -304.2 
L 595.216216 -304.2 
L 595.723997 -304.2 
L 596.231777 -304.2 
L 596.739558 -304.2 
L 597.247338 -304.2 
L 597.755119 -304.2 
L 598.262899 -304.2 
L 598.77068 -304.2 
L 599.27846 -304.2 
L 599.786241 -304.2 
L 600.294021 -304.2 
L 600.801802 -304.2 
L 601.309582 -304.2 
L 601.817363 -304.2 
L 602.325143 -304.2 
L 602.832924 -304.2 
L 603.340704 -304.2 
L 603.848485 -304.2 
L 604.356265 -304.2 
L 604.864046 -304.2 
L 605.371826 -304.2 
L 605.879607 -304.2 
L 606.387387 -304.2 
L 606.895168 -304.2 
L 607.402948 -304.2 
L 607.910729 -304.2 
L 608.418509 -304.2 
L 608.92629 -304.2 
L 609.43407 -304.2 
L 609.941851 -304.2 
L 610.449631 -304.2 
L 610.957412 -304.2 
L 611.465192 -304.2 
L 611.972973 -304.2 
L 612.480753 -304.2 
L 612.988534 -304.2 
L 613.496314 -304.2 
L 614.004095 -304.2 
L 614.511876 -304.2 
L 615.019656 -304.2 
L 615.527437 -304.2 
L 616.035217 -304.2 
L 616.542998 -304.2 
L 617.050778 -304.2 
L 617.558559 -304.2 
L 618.066339 -304.2 
L 618.57412 -304.2 
L 619.0819 -304.2 
L 619.589681 -304.2 
L 620.097461 -304.2 
L 620.605242 -304.2 
L 621.113022 -304.2 
L 621.620803 -304.2 
L 622.128583 -304.2 
L 622.636364 -304.2 
L 622.636364 -304.2 
L 622.636364 -304.2 
L 622.128583 -304.2 
L 621.620803 -304.2 
L 621.113022 -304.2 
L 620.605242 -304.2 
L 620.097461 -304.2 
L 619.589681 -304.2 
L 619.0819 -304.2 
L 618.57412 -304.2 
L 618.066339 -304.2 
L 617.558559 -304.2 
L 617.050778 -304.2 
L 616.542998 -304.2 
L 616.035217 -304.2 
L 615.527437 -304.2 
L 615.019656 -304.2 
L 614.511876 -304.2 
L 614.004095 -304.2 
L 613.496314 -304.2 
L 612.988534 -304.2 
L 612.480753 -304.2 
L 611.972973 -304.2 
L 611.465192 -304.2 
L 610.957412 -304.2 
L 610.449631 -304.2 
L 609.941851 -304.2 
L 609.43407 -304.2 
L 608.92629 -304.2 
L 608.418509 -304.2 
L 607.910729 -304.2 
L 607.402948 -304.2 
L 606.895168 -304.2 
L 606.387387 -304.2 
L 605.879607 -304.2 
L 605.371826 -304.2 
L 604.864046 -304.2 
L 604.356265 -304.2 
L 603.848485 -304.2 
L 603.340704 -304.2 
L 602.832924 -304.2 
L 602.325143 -304.2 
L 601.817363 -304.2 
L 601.309582 -304.2 
L 600.801802 -304.2 
L 600.294021 -304.2 
L 599.786241 -304.2 
L 599.27846 -304.2 
L 598.77068 -304.2 
L 598.262899 -304.2 
L 597.755119 -304.2 
L 597.247338 -304.2 
L 596.739558 -304.2 
L 596.231777 -304.2 
L 595.723997 -304.2 
L 595.216216 -304.2 
L 594.708436 -304.2 
L 594.200655 -304.2 
L 593.692875 -304.2 
L 593.185094 -304.2 
L 592.677314 -304.2 
L 592.169533 -304.2 
L 591.661753 -304.2 
L 591.153972 -304.2 
L 590.646192 -304.2 
L 590.138411 -304.2 
L 589.630631 -304.2 
L 589.12285 -304.2 
L 588.61507 -304.2 
L 588.107289 -304.2 
L 587.599509 -304.2 
L 587.091728 -304.2 
L 586.583948 -304.2 
L 586.076167 -304.2 
L 585.568387 -304.2 
L 585.060606 -304.2 
L 584.552826 -304.2 
L 584.045045 -304.2 
L 583.537265 -304.2 
L 583.029484 -304.2 
L 582.521704 -304.2 
L 582.013923 -304.2 
L 581.506143 -304.2 
L 580.998362 -304.2 
L 580.490581 -304.2 
L 579.982801 -304.2 
L 579.47502 -304.2 
L 578.96724 -304.2 
L 578.459459 -304.2 
L 577.951679 -304.2 
L 577.443898 -304.2 
L 576.936118 -304.2 
L 576.428337 -304.2 
L 575.920557 -304.2 
L 575.412776 -304.2 
L 574.904996 -304.2 
L 574.397215 -304.2 
L 573.889435 -304.2 
L 573.381654 -304.2 
L 572.873874 -304.2 
L 572.366093 -304.2 
L 571.858313 -304.2 
L 571.350532 -304.2 
L 570.842752 -304.2 
L 570.334971 -304.2 
L 569.827191 -304.2 
L 569.31941 -304.2 
L 568.81163 -304.2 
L 568.303849 -304.2 
L 567.796069 -304.2 
L 567.288288 -304.2 
L 566.780508 -304.2 
L 566.272727 -304.2 
L 565.764947 -304.2 
L 565.257166 -304.2 
L 564.749386 -304.2 
L 564.241605 -304.2 
L 563.733825 -304.2 
L 563.226044 -304.2 
L 562.718264 -304.2 
L 562.210483 -304.2 
L 561.702703 -304.2 
L 561.194922 -304.2 
L 560.687142 -304.2 
L 560.179361 -304.2 
L 559.671581 -304.2 
L 559.1638 -304.2 
L 558.65602 -304.2 
L 558.148239 -304.2 
L 557.640459 -304.2 
L 557.132678 -304.2 
L 556.624898 -304.2 
L 556.117117 -304.2 
L 555.609337 -304.2 
L 555.101556 -304.2 
L 554.593776 -304.2 
L 554.085995 -304.2 
L 553.578215 -304.2 
L 553.070434 -304.2 
L 552.562654 -304.2 
L 552.054873 -304.2 
L 551.547093 -304.2 
L 551.039312 -304.2 
L 550.531532 -304.2 
L 550.023751 -304.2 
L 549.515971 -304.2 
L 549.00819 -304.2 
L 548.50041 -304.2 
L 547.992629 -304.2 
L 547.484848 -304.2 
L 546.977068 -304.2 
L 546.469287 -304.2 
L 545.961507 -304.2 
L 545.453726 -304.2 
L 544.945946 -304.2 
L 544.438165 -304.2 
L 543.930385 -304.2 
L 543.422604 -304.2 
L 542.914824 -304.2 
L 542.407043 -304.2 
L 541.899263 -304.2 
L 541.391482 -304.2 
L 540.883702 -304.2 
L 540.375921 -304.2 
L 539.868141 -304.2 
L 539.36036 -304.2 
L 538.85258 -304.2 
L 538.344799 -304.2 
L 537.837019 -304.2 
L 537.329238 -304.2 
L 536.821458 -304.2 
L 536.313677 -304.2 
L 535.805897 -304.2 
L 535.298116 -304.2 
L 534.790336 -304.2 
L 534.282555 -304.2 
L 533.774775 -304.2 
L 533.266994 -304.2 
L 532.759214 -304.2 
L 532.251433 -304.2 
L 531.743653 -304.2 
L 531.235872 -304.2 
L 530.728092 -304.2 
L 530.220311 -304.2 
L 529.712531 -304.2 
L 529.20475 -304.2 
L 528.69697 -304.2 
L 528.189189 -304.2 
L 527.681409 -304.2 
L 527.173628 -304.2 
L 526.665848 -304.2 
L 526.158067 -304.2 
L 525.650287 -304.2 
L 525.142506 -304.2 
L 524.634726 -304.2 
L 524.126945 -304.2 
L 523.619165 -304.2 
L 523.111384 -304.2 
L 522.603604 -304.2 
L 522.095823 -304.2 
L 521.588043 -304.2 
L 521.080262 -304.2 
L 520.572482 -304.2 
L 520.064701 -304.2 
L 519.556921 -304.2 
L 519.04914 -304.2 
L 518.54136 -304.2 
L 518.033579 -304.2 
L 517.525799 -304.2 
L 517.018018 -304.2 
L 516.510238 -304.2 
L 516.002457 -304.2 
L 515.494676 -304.2 
L 514.986896 -304.2 
L 514.479115 -304.2 
L 513.971335 -304.2 
L 513.463554 -304.2 
L 512.955774 -304.2 
L 512.447993 -304.2 
L 511.940213 -304.2 
L 511.432432 -304.2 
L 510.924652 -304.2 
L 510.416871 -304.2 
L 509.909091 -304.2 
L 509.40131 -304.2 
L 508.89353 -304.2 
L 508.385749 -304.2 
L 507.877969 -304.2 
L 507.370188 -304.2 
L 506.862408 -304.2 
L 506.354627 -304.2 
L 505.846847 -304.2 
L 505.339066 -304.2 
L 504.831286 -304.2 
L 504.323505 -304.2 
L 503.815725 -304.2 
L 503.307944 -304.2 
L 502.800164 -304.2 
L 502.292383 -304.2 
L 501.784603 -304.2 
L 501.276822 -304.2 
L 500.769042 -304.2 
L 500.261261 -304.2 
L 499.753481 -304.2 
L 499.2457 -304.2 
L 498.73792 -304.2 
L 498.230139 -304.2 
L 497.722359 -304.2 
L 497.214578 -304.2 
L 496.706798 -304.2 
L 496.199017 -304.2 
L 495.691237 -304.2 
L 495.183456 -304.2 
L 494.675676 -304.2 
L 494.167895 -304.2 
L 493.660115 -304.2 
L 493.152334 -304.2 
L 492.644554 -304.2 
L 492.136773 -304.2 
L 491.628993 -304.2 
L 491.121212 -304.2 
L 490.613432 -304.2 
L 490.105651 -304.2 
L 489.597871 -304.2 
L 489.09009 -304.2 
L 488.58231 -304.2 
L 488.074529 -304.2 
L 487.566749 -304.2 
L 487.058968 -304.2 
L 486.551188 -304.2 
L 486.043407 -304.2 
L 485.535627 -304.2 
L 485.027846 -304.2 
L 484.520066 -304.2 
L 484.012285 -304.2 
L 483.504505 -304.2 
L 482.996724 -304.2 
L 482.488943 -304.2 
L 481.981163 -304.2 
L 481.473382 -304.2 
L 480.965602 -304.2 
L 480.457821 -304.2 
L 479.950041 -304.2 
L 479.44226 -304.2 
L 478.93448 -304.2 
L 478.426699 -304.2 
L 477.918919 -304.2 
L 477.411138 -304.2 
L 476.903358 -304.2 
L 476.395577 -304.2 
L 475.887797 -304.2 
L 475.380016 -304.2 
L 474.872236 -304.2 
L 474.364455 -304.2 
L 473.856675 -304.2 
L 473.348894 -304.2 
L 472.841114 -304.2 
L 472.333333 -304.2 
L 471.825553 -304.2 
L 471.317772 -304.2 
L 470.809992 -304.2 
L 470.302211 -304.2 
L 469.794431 -304.2 
L 469.28665 -304.2 
L 468.77887 -304.2 
L 468.271089 -304.2 
L 467.763309 -304.2 
L 467.255528 -304.2 
L 466.747748 -304.2 
L 466.239967 -304.2 
L 465.732187 -304.2 
L 465.224406 -304.2 
L 464.716626 -304.2 
L 464.208845 -304.2 
L 463.701065 -304.2 
L 463.193284 -304.2 
L 462.685504 -304.2 
L 462.177723 -304.2 
L 461.669943 -304.2 
L 461.162162 -304.2 
L 460.654382 -304.2 
L 460.146601 -304.2 
L 459.638821 -304.2 
L 459.13104 -304.2 
L 458.62326 -304.2 
L 458.115479 -304.2 
L 457.607699 -304.2 
L 457.099918 -304.2 
L 456.592138 -304.2 
L 456.084357 -304.2 
L 455.576577 -304.2 
L 455.068796 -304.2 
L 454.561016 -304.2 
L 454.053235 -304.2 
L 453.545455 -304.2 
L 453.037674 -304.2 
L 452.529894 -304.2 
L 452.022113 -304.2 
L 451.514333 -304.2 
L 451.006552 -304.2 
L 450.498771 -304.2 
L 449.990991 -304.2 
L 449.48321 -304.2 
L 448.97543 -304.2 
L 448.467649 -304.2 
L 447.959869 -304.2 
L 447.452088 -304.2 
L 446.944308 -304.2 
L 446.436527 -304.2 
L 445.928747 -304.2 
L 445.420966 -304.2 
L 444.913186 -304.2 
L 444.405405 -304.2 
L 443.897625 -304.2 
L 443.389844 -304.2 
L 442.882064 -304.2 
L 442.374283 -304.2 
L 441.866503 -304.2 
L 441.358722 -304.2 
L 440.850942 -304.2 
L 440.343161 -304.2 
L 439.835381 -304.2 
L 439.3276 -304.2 
L 438.81982 -304.2 
L 438.312039 -304.2 
L 437.804259 -304.2 
L 437.296478 -304.2 
L 436.788698 -304.2 
L 436.280917 -304.2 
L 435.773137 -304.2 
L 435.265356 -304.2 
L 434.757576 -304.2 
L 434.249795 -304.2 
L 433.742015 -304.2 
L 433.234234 -304.2 
L 432.726454 -304.2 
L 432.218673 -304.2 
L 431.710893 -304.2 
L 431.203112 -304.2 
L 430.695332 -304.2 
L 430.187551 -304.2 
L 429.679771 -304.2 
L 429.17199 -304.2 
L 428.66421 -304.2 
L 428.156429 -304.2 
L 427.648649 -304.2 
L 427.140868 -304.2 
L 426.633088 -304.2 
L 426.125307 -304.2 
L 425.617527 -304.2 
L 425.109746 -304.2 
L 424.601966 -304.2 
L 424.094185 -304.2 
L 423.586405 -304.2 
L 423.078624 -304.2 
L 422.570844 -304.2 
L 422.063063 -304.2 
L 421.555283 -304.2 
L 421.047502 -304.2 
L 420.539722 -304.2 
L 420.031941 -304.2 
L 419.524161 -304.2 
L 419.01638 -304.2 
L 418.5086 -304.2 
L 418.000819 -304.2 
L 417.493038 -304.2 
L 416.985258 -304.2 
L 416.477477 -304.2 
L 415.969697 -304.2 
L 415.461916 -304.2 
L 414.954136 -304.2 
L 414.446355 -304.2 
L 413.938575 -304.2 
L 413.430794 -304.2 
L 412.923014 -304.2 
L 412.415233 -304.2 
L 411.907453 -304.2 
L 411.399672 -304.2 
L 410.891892 -304.2 
L 410.384111 -304.2 
L 409.876331 -304.2 
L 409.36855 -304.2 
L 408.86077 -304.2 
L 408.352989 -304.2 
L 407.845209 -304.2 
L 407.337428 -304.2 
L 406.829648 -304.2 
L 406.321867 -304.2 
L 405.814087 -304.2 
L 405.306306 -304.2 
L 404.798526 -304.2 
L 404.290745 -304.2 
L 403.782965 -304.2 
L 403.275184 -304.2 
L 402.767404 -304.2 
L 402.259623 -304.2 
L 401.751843 -304.2 
L 401.244062 -304.2 
L 400.736282 -304.2 
L 400.228501 -304.2 
L 399.720721 -304.2 
L 399.21294 -304.2 
L 398.70516 -304.2 
L 398.197379 -304.2 
L 397.689599 -304.2 
L 397.181818 -304.2 
L 396.674038 -304.2 
L 396.166257 -304.2 
L 395.658477 -304.2 
L 395.150696 -304.2 
L 394.642916 -304.2 
L 394.135135 -304.2 
L 393.627355 -304.2 
L 393.119574 -304.2 
L 392.611794 -304.2 
L 392.104013 -304.2 
L 391.596233 -304.2 
L 391.088452 -304.2 
L 390.580672 -304.2 
L 390.072891 -304.2 
L 389.565111 -304.2 
L 389.05733 -304.2 
L 388.54955 -304.2 
L 388.041769 -304.2 
L 387.533989 -304.2 
L 387.026208 -304.2 
L 386.518428 -304.2 
L 386.010647 -304.2 
L 385.502867 -304.2 
L 384.995086 -304.2 
L 384.487305 -304.2 
L 383.979525 -304.2 
L 383.471744 -304.2 
L 382.963964 -304.2 
L 382.456183 -304.2 
L 381.948403 -304.2 
L 381.440622 -304.2 
L 380.932842 -304.2 
L 380.425061 -304.2 
L 379.917281 -304.2 
L 379.4095 -304.2 
L 378.90172 -304.2 
L 378.393939 -304.2 
L 377.886159 -304.2 
L 377.378378 -304.2 
L 376.870598 -304.2 
L 376.362817 -304.2 
L 375.855037 -304.2 
L 375.347256 -304.2 
L 374.839476 -304.2 
L 374.331695 -304.2 
L 373.823915 -304.2 
L 373.316134 -304.2 
L 372.808354 -304.2 
L 372.300573 -304.2 
L 371.792793 -304.2 
L 371.285012 -304.2 
L 370.777232 -304.2 
L 370.269451 -304.2 
L 369.761671 -304.2 
L 369.25389 -304.2 
L 368.74611 -304.2 
L 368.238329 -304.2 
L 367.730549 -304.2 
L 367.222768 -304.2 
L 366.714988 -304.2 
L 366.207207 -304.2 
L 365.699427 -304.2 
L 365.191646 -304.2 
L 364.683866 -304.2 
L 364.176085 -304.2 
L 363.668305 -304.2 
L 363.160524 -304.2 
L 362.652744 -304.2 
L 362.144963 -304.2 
L 361.637183 -304.2 
L 361.129402 -304.2 
L 360.621622 -304.2 
L 360.113841 -304.2 
L 359.606061 -304.2 
L 359.09828 -304.2 
L 358.5905 -304.2 
L 358.082719 -304.2 
L 357.574939 -304.2 
L 357.067158 -304.2 
L 356.559378 -304.2 
L 356.051597 -304.2 
L 355.543817 -304.2 
L 355.036036 -304.2 
L 354.528256 -304.2 
L 354.020475 -304.2 
L 353.512695 -304.2 
L 353.004914 -304.2 
L 352.497133 -304.2 
L 351.989353 -304.2 
L 351.481572 -304.2 
L 350.973792 -304.2 
L 350.466011 -304.2 
L 349.958231 -304.2 
L 349.45045 -304.2 
L 348.94267 -304.2 
L 348.434889 -304.2 
L 347.927109 -304.2 
L 347.419328 -304.2 
L 346.911548 -304.2 
L 346.403767 -304.2 
L 345.895987 -304.2 
L 345.388206 -304.2 
L 344.880426 -304.2 
L 344.372645 -304.2 
L 343.864865 -304.2 
L 343.357084 -304.2 
L 342.849304 -304.2 
L 342.341523 -304.2 
L 341.833743 -304.2 
L 341.325962 -304.2 
L 340.818182 -304.2 
L 340.310401 -304.2 
L 339.802621 -304.2 
L 339.29484 -304.2 
L 338.78706 -304.2 
L 338.279279 -304.2 
L 337.771499 -304.2 
L 337.263718 -304.2 
L 336.755938 -304.2 
L 336.248157 -304.2 
L 335.740377 -304.2 
L 335.232596 -304.2 
L 334.724816 -304.2 
L 334.217035 -304.2 
L 333.709255 -304.2 
L 333.201474 -304.2 
L 332.693694 -304.2 
L 332.185913 -304.2 
L 331.678133 -304.2 
L 331.170352 -304.2 
L 330.662572 -304.2 
L 330.154791 -304.2 
L 329.647011 -304.2 
L 329.13923 -304.2 
L 328.63145 -304.2 
L 328.123669 -304.2 
L 327.615889 -304.2 
L 327.108108 -304.2 
L 326.600328 -304.2 
L 326.092547 -304.2 
L 325.584767 -304.2 
L 325.076986 -304.2 
L 324.569206 -304.2 
L 324.061425 -304.2 
L 323.553645 -304.2 
L 323.045864 -304.2 
L 322.538084 -304.2 
L 322.030303 -304.2 
L 321.522523 -304.2 
L 321.014742 -304.2 
L 320.506962 -304.2 
L 319.999181 -304.2 
L 319.4914 -304.2 
L 318.98362 -304.2 
L 318.475839 -304.2 
L 317.968059 -304.2 
L 317.460278 -304.2 
L 316.952498 -304.2 
L 316.444717 -304.2 
L 315.936937 -304.2 
L 315.429156 -304.2 
L 314.921376 -304.2 
L 314.413595 -304.2 
L 313.905815 -304.2 
L 313.398034 -304.2 
L 312.890254 -304.2 
L 312.382473 -304.2 
L 311.874693 -304.2 
L 311.366912 -304.2 
L 310.859132 -304.2 
L 310.351351 -304.2 
L 309.843571 -304.2 
L 309.33579 -304.2 
L 308.82801 -304.2 
L 308.320229 -304.2 
L 307.812449 -304.2 
L 307.304668 -304.2 
L 306.796888 -304.2 
L 306.289107 -304.2 
L 305.781327 -304.2 
L 305.273546 -304.2 
L 304.765766 -304.2 
L 304.257985 -304.2 
L 303.750205 -304.2 
L 303.242424 -304.2 
L 302.734644 -304.2 
L 302.226863 -304.2 
L 301.719083 -304.2 
L 301.211302 -304.2 
L 300.703522 -304.2 
L 300.195741 -304.2 
L 299.687961 -304.2 
L 299.18018 -304.2 
L 298.6724 -304.2 
L 298.164619 -304.2 
L 297.656839 -304.2 
L 297.149058 -304.2 
L 296.641278 -304.2 
L 296.133497 -304.2 
L 295.625717 -304.2 
L 295.117936 -304.2 
L 294.610156 -304.2 
L 294.102375 -304.2 
L 293.594595 -304.2 
L 293.086814 -304.2 
L 292.579034 -304.2 
L 292.071253 -304.2 
L 291.563473 -304.2 
L 291.055692 -304.2 
L 290.547912 -304.2 
L 290.040131 -304.2 
L 289.532351 -304.2 
L 289.02457 -304.2 
L 288.51679 -304.2 
L 288.009009 -304.2 
L 287.501229 -304.2 
L 286.993448 -304.2 
L 286.485667 -304.2 
L 285.977887 -304.2 
L 285.470106 -304.2 
L 284.962326 -304.2 
L 284.454545 -304.2 
L 283.946765 -304.2 
L 283.438984 -304.2 
L 282.931204 -304.2 
L 282.423423 -304.2 
L 281.915643 -304.2 
L 281.407862 -304.2 
L 280.900082 -304.2 
L 280.392301 -304.2 
L 279.884521 -304.2 
L 279.37674 -304.2 
L 278.86896 -304.2 
L 278.361179 -304.2 
L 277.853399 -304.2 
L 277.345618 -304.2 
L 276.837838 -304.2 
L 276.330057 -304.2 
L 275.822277 -304.2 
L 275.314496 -304.2 
L 274.806716 -304.2 
L 274.298935 -304.2 
L 273.791155 -304.2 
L 273.283374 -304.2 
L 272.775594 -304.2 
L 272.267813 -304.2 
L 271.760033 -304.2 
L 271.252252 -304.2 
L 270.744472 -304.2 
L 270.236691 -304.2 
L 269.728911 -304.2 
L 269.22113 -304.2 
L 268.71335 -304.2 
L 268.205569 -304.2 
L 267.697789 -304.2 
L 267.190008 -304.2 
L 266.682228 -304.2 
L 266.174447 -304.2 
L 265.666667 -304.2 
L 265.158886 -304.2 
L 264.651106 -304.2 
L 264.143325 -304.2 
L 263.635545 -304.2 
L 263.127764 -304.2 
L 262.619984 -304.2 
L 262.112203 -304.2 
L 261.604423 -304.2 
L 261.096642 -304.2 
L 260.588862 -304.2 
L 260.081081 -304.2 
L 259.573301 -304.2 
L 259.06552 -304.2 
L 258.55774 -304.2 
L 258.049959 -304.2 
L 257.542179 -304.2 
L 257.034398 -304.2 
L 256.526618 -304.2 
L 256.018837 -304.2 
L 255.511057 -304.2 
L 255.003276 -304.2 
L 254.495495 -304.2 
L 253.987715 -304.2 
L 253.479934 -304.2 
L 252.972154 -304.2 
L 252.464373 -304.2 
L 251.956593 -304.2 
L 251.448812 -304.2 
L 250.941032 -304.2 
L 250.433251 -304.2 
L 249.925471 -304.2 
L 249.41769 -304.2 
L 248.90991 -304.2 
L 248.402129 -304.2 
L 247.894349 -304.2 
L 247.386568 -304.2 
L 246.878788 -304.2 
L 246.371007 -304.2 
L 245.863227 -304.2 
L 245.355446 -304.2 
L 244.847666 -304.2 
L 244.339885 -304.2 
L 243.832105 -304.2 
L 243.324324 -304.2 
L 242.816544 -304.2 
L 242.308763 -304.2 
L 241.800983 -304.2 
L 241.293202 -304.2 
L 240.785422 -304.2 
L 240.277641 -304.2 
L 239.769861 -304.2 
L 239.26208 -304.2 
L 238.7543 -304.2 
L 238.246519 -304.2 
L 237.738739 -304.2 
L 237.230958 -304.2 
L 236.723178 -304.2 
L 236.215397 -304.2 
L 235.707617 -304.2 
L 235.199836 -304.2 
L 234.692056 -304.2 
L 234.184275 -304.2 
L 233.676495 -304.2 
L 233.168714 -304.2 
L 232.660934 -304.2 
L 232.153153 -304.2 
L 231.645373 -304.2 
L 231.137592 -304.2 
L 230.629812 -304.2 
L 230.122031 -304.2 
L 229.614251 -304.2 
L 229.10647 -304.2 
L 228.59869 -304.2 
L 228.090909 -304.2 
L 227.583129 -304.2 
L 227.075348 -304.2 
L 226.567568 -304.2 
L 226.059787 -304.2 
L 225.552007 -304.2 
L 225.044226 -304.2 
L 224.536446 -304.2 
L 224.028665 -304.2 
L 223.520885 -304.2 
L 223.013104 -304.2 
L 222.505324 -304.2 
L 221.997543 -304.2 
L 221.489762 -304.2 
L 220.981982 -304.2 
L 220.474201 -304.2 
L 219.966421 -304.2 
L 219.45864 -304.2 
L 218.95086 -304.2 
L 218.443079 -304.2 
L 217.935299 -304.2 
L 217.427518 -304.2 
L 216.919738 -304.2 
L 216.411957 -304.2 
L 215.904177 -304.2 
L 215.396396 -304.2 
L 214.888616 -304.2 
L 214.380835 -304.2 
L 213.873055 -304.2 
L 213.365274 -304.2 
L 212.857494 -304.2 
L 212.349713 -304.2 
L 211.841933 -304.2 
L 211.334152 -304.2 
L 210.826372 -304.2 
L 210.318591 -304.2 
L 209.810811 -304.2 
L 209.30303 -304.2 
L 208.79525 -304.2 
L 208.287469 -304.2 
L 207.779689 -304.2 
L 207.271908 -304.2 
L 206.764128 -304.2 
L 206.256347 -304.2 
L 205.748567 -304.2 
L 205.240786 -304.2 
L 204.733006 -304.2 
L 204.225225 -304.2 
L 203.717445 -304.2 
L 203.209664 -304.2 
L 202.701884 -304.2 
L 202.194103 -304.2 
L 201.686323 -304.2 
L 201.178542 -304.2 
L 200.670762 -304.2 
L 200.162981 -304.2 
L 199.655201 -304.2 
L 199.14742 -304.2 
L 198.63964 -304.2 
L 198.131859 -304.2 
L 197.624079 -304.2 
L 197.116298 -304.2 
L 196.608518 -304.2 
L 196.100737 -304.2 
L 195.592957 -304.2 
L 195.085176 -304.2 
L 194.577396 -304.2 
L 194.069615 -304.2 
L 193.561835 -304.2 
L 193.054054 -304.2 
L 192.546274 -304.2 
L 192.038493 -304.2 
L 191.530713 -304.2 
L 191.022932 -304.2 
L 190.515152 -304.2 
L 190.007371 -304.2 
L 189.49959 -304.2 
L 188.99181 -304.2 
L 188.484029 -304.2 
L 187.976249 -304.2 
L 187.468468 -304.2 
L 186.960688 -304.2 
L 186.452907 -304.2 
L 185.945127 -304.2 
L 185.437346 -304.2 
L 184.929566 -304.2 
L 184.421785 -304.2 
L 183.914005 -304.2 
L 183.406224 -304.2 
L 182.898444 -304.2 
L 182.390663 -304.2 
L 181.882883 -304.2 
L 181.375102 -304.2 
L 180.867322 -304.2 
L 180.359541 -304.2 
L 179.851761 -304.2 
L 179.34398 -304.2 
L 178.8362 -304.2 
L 178.328419 -304.2 
L 177.820639 -304.2 
L 177.312858 -304.2 
L 176.805078 -304.2 
L 176.297297 -304.2 
L 175.789517 -304.2 
L 175.281736 -304.2 
L 174.773956 -304.2 
L 174.266175 -304.2 
L 173.758395 -304.2 
L 173.250614 -304.2 
L 172.742834 -304.2 
L 172.235053 -304.2 
L 171.727273 -304.2 
L 171.219492 -304.2 
L 170.711712 -304.2 
L 170.203931 -304.2 
L 169.696151 -304.2 
L 169.18837 -304.2 
L 168.68059 -304.2 
L 168.172809 -295.510345 
L 167.665029 -304.2 
L 167.157248 -304.2 
L 166.649468 -304.2 
L 166.141687 -304.2 
L 165.633907 -304.2 
L 165.126126 -304.2 
L 164.618346 -304.2 
L 164.110565 -304.2 
L 163.602785 -304.2 
L 163.095004 -304.2 
L 162.587224 -304.2 
L 162.079443 -304.2 
L 161.571663 -303.113793 
L 161.063882 -304.2 
L 160.556102 -304.2 
L 160.048321 -304.2 
L 159.540541 -304.2 
L 159.03276 -304.2 
L 158.52498 -304.2 
L 158.017199 -304.2 
L 157.509419 -304.2 
L 157.001638 -304.2 
L 156.493857 -281.389655 
L 155.986077 -304.2 
L 155.478296 -280.303448 
L 154.970516 -278.131034 
L 154.462735 -304.2 
L 153.954955 -304.2 
L 153.447174 -274.872414 
L 152.939394 -231.424138 
L 152.431613 -270.527586 
L 151.923833 -297.682759 
L 151.416052 -266.182759 
L 150.908272 -304.2 
L 150.400491 -304.2 
L 149.892711 -261.837931 
L 149.38493 -264.010345 
L 148.87715 -267.268966 
L 148.369369 -298.768966 
L 147.861589 -298.768966 
L 147.353808 -209.7 
L 146.846028 -262.924138 
L 146.338247 -225.993103 
L 145.830467 -255.32069 
L 145.322686 -237.941379 
L 144.814906 -230.337931 
L 144.307125 -296.596552 
L 143.799345 -206.441379 
L 143.291564 -270.527586 
L 142.783784 -231.424138 
L 142.276003 -202.096552 
L 141.768223 -211.872414 
L 141.260442 -233.596552 
L 140.752662 -235.768966 
L 140.244881 -279.217241 
L 139.737101 -236.855172 
L 139.22932 -192.32069 
L 138.72154 -197.751724 
L 138.213759 -182.544828 
L 137.705979 -165.165517 
L 137.198198 -199.924138 
L 136.690418 -198.837931 
L 136.182637 -185.803448 
L 135.674857 -205.355172 
L 135.167076 -192.32069 
L 134.659296 -173.855172 
L 134.151515 -157.562069 
L 133.643735 -179.286207 
L 133.135954 -170.596552 
L 132.628174 -170.596552 
L 132.120393 -166.251724 
L 131.612613 -174.941379 
L 131.104832 -160.82069 
L 130.597052 -136.924138 
L 130.089271 -170.596552 
L 129.581491 -156.475862 
L 129.07371 -155.389655 
L 128.56593 -167.337931 
L 128.058149 -129.32069 
L 127.550369 -141.268966 
L 127.042588 -143.441379 
L 126.534808 -138.010345 
L 126.027027 -131.493103 
L 125.519247 -123.889655 
L 125.011466 -143.441379 
L 124.503686 -127.148276 
L 123.995905 -129.32069 
L 123.488124 -119.544828 
L 122.980344 -143.441379 
L 122.472563 -111.941379 
L 121.964783 -111.941379 
L 121.457002 -109.768966 
L 120.949222 -99.993103 
L 120.441441 -97.82069 
L 119.933661 -95.648276 
L 119.42588 -110.855172 
L 118.9181 -92.389655 
L 118.410319 -89.131034 
L 117.902539 -97.82069 
L 117.394758 -117.372414 
L 116.886978 -101.07931 
L 116.379197 -78.268966 
L 115.871417 -79.355172 
L 115.363636 -80.441379 
z
" id="m86147f265f" style="stroke:#a7093f;stroke-opacity:0.2;"/>
    </defs>
    <g clip-path="url(#p75ccb2c6eb)">
     <use style="fill:#a7093f;fill-opacity:0.2;stroke:#a7093f;stroke-opacity:0.2;" x="0" xlink:href="#m86147f265f" y="360"/>
    </g>
   </g>
   <g id="matplotlib.axis_1">
    <g id="xtick_1">
     <g id="line2d_1">
      <path clip-path="url(#p75ccb2c6eb)" d="M 115.363636 320.4 
L 115.363636 43.2 
" style="fill:none;stroke:#b0b0b0;stroke-linecap:square;stroke-width:0.8;"/>
     </g>
     <g id="line2d_2">
      <defs>
       <path d="M 0 0 
L 0 3.5 
" id="md93c228ad4" style="stroke:#000000;stroke-width:0.8;"/>
      </defs>
      <g>
       <use style="stroke:#000000;stroke-width:0.8;" x="115.363636" xlink:href="#md93c228ad4" y="320.4"/>
      </g>
     </g>
     <g id="text_1">
      <!-- 0 -->
      <defs>
       <path d="M 31.78125 66.40625 
Q 24.171875 66.40625 20.328125 58.90625 
Q 16.5 51.421875 16.5 36.375 
Q 16.5 21.390625 20.328125 13.890625 
Q 24.171875 6.390625 31.78125 6.390625 
Q 39.453125 6.390625 43.28125 13.890625 
Q 47.125 21.390625 47.125 36.375 
Q 47.125 51.421875 43.28125 58.90625 
Q 39.453125 66.40625 31.78125 66.40625 
z
M 31.78125 74.21875 
Q 44.046875 74.21875 50.515625 64.515625 
Q 56.984375 54.828125 56.984375 36.375 
Q 56.984375 17.96875 50.515625 8.265625 
Q 44.046875 -1.421875 31.78125 -1.421875 
Q 19.53125 -1.421875 13.0625 8.265625 
Q 6.59375 17.96875 6.59375 36.375 
Q 6.59375 54.828125 13.0625 64.515625 
Q 19.53125 74.21875 31.78125 74.21875 
z
" id="DejaVuSans-48"/>
      </defs>
      <g transform="translate(112.182386 334.998438)scale(0.1 -0.1)">
       <use xlink:href="#DejaVuSans-48"/>
      </g>
     </g>
    </g>
    <g id="xtick_2">
     <g id="line2d_3">
      <path clip-path="url(#p75ccb2c6eb)" d="M 198.010203 320.4 
L 198.010203 43.2 
" style="fill:none;stroke:#b0b0b0;stroke-linecap:square;stroke-width:0.8;"/>
     </g>
     <g id="line2d_4">
      <g>
       <use style="stroke:#000000;stroke-width:0.8;" x="198.010203" xlink:href="#md93c228ad4" y="320.4"/>
      </g>
     </g>
     <g id="text_2">
      <!-- 1 -->
      <defs>
       <path d="M 12.40625 8.296875 
L 28.515625 8.296875 
L 28.515625 63.921875 
L 10.984375 60.40625 
L 10.984375 69.390625 
L 28.421875 72.90625 
L 38.28125 72.90625 
L 38.28125 8.296875 
L 54.390625 8.296875 
L 54.390625 0 
L 12.40625 0 
z
" id="DejaVuSans-49"/>
      </defs>
      <g transform="translate(194.828953 334.998438)scale(0.1 -0.1)">
       <use xlink:href="#DejaVuSans-49"/>
      </g>
     </g>
    </g>
    <g id="xtick_3">
     <g id="line2d_5">
      <path clip-path="url(#p75ccb2c6eb)" d="M 280.65677 320.4 
L 280.65677 43.2 
" style="fill:none;stroke:#b0b0b0;stroke-linecap:square;stroke-width:0.8;"/>
     </g>
     <g id="line2d_6">
      <g>
       <use style="stroke:#000000;stroke-width:0.8;" x="280.65677" xlink:href="#md93c228ad4" y="320.4"/>
      </g>
     </g>
     <g id="text_3">
      <!-- 2 -->
      <defs>
       <path d="M 19.1875 8.296875 
L 53.609375 8.296875 
L 53.609375 0 
L 7.328125 0 
L 7.328125 8.296875 
Q 12.9375 14.109375 22.625 23.890625 
Q 32.328125 33.6875 34.8125 36.53125 
Q 39.546875 41.84375 41.421875 45.53125 
Q 43.3125 49.21875 43.3125 52.78125 
Q 43.3125 58.59375 39.234375 62.25 
Q 35.15625 65.921875 28.609375 65.921875 
Q 23.96875 65.921875 18.8125 64.3125 
Q 13.671875 62.703125 7.8125 59.421875 
L 7.8125 69.390625 
Q 13.765625 71.78125 18.9375 73 
Q 24.125 74.21875 28.421875 74.21875 
Q 39.75 74.21875 46.484375 68.546875 
Q 53.21875 62.890625 53.21875 53.421875 
Q 53.21875 48.921875 51.53125 44.890625 
Q 49.859375 40.875 45.40625 35.40625 
Q 44.1875 33.984375 37.640625 27.21875 
Q 31.109375 20.453125 19.1875 8.296875 
z
" id="DejaVuSans-50"/>
      </defs>
      <g transform="translate(277.47552 334.998438)scale(0.1 -0.1)">
       <use xlink:href="#DejaVuSans-50"/>
      </g>
     </g>
    </g>
    <g id="xtick_4">
     <g id="line2d_7">
      <path clip-path="url(#p75ccb2c6eb)" d="M 363.303337 320.4 
L 363.303337 43.2 
" style="fill:none;stroke:#b0b0b0;stroke-linecap:square;stroke-width:0.8;"/>
     </g>
     <g id="line2d_8">
      <g>
       <use style="stroke:#000000;stroke-width:0.8;" x="363.303337" xlink:href="#md93c228ad4" y="320.4"/>
      </g>
     </g>
     <g id="text_4">
      <!-- 3 -->
      <defs>
       <path d="M 40.578125 39.3125 
Q 47.65625 37.796875 51.625 33 
Q 55.609375 28.21875 55.609375 21.1875 
Q 55.609375 10.40625 48.1875 4.484375 
Q 40.765625 -1.421875 27.09375 -1.421875 
Q 22.515625 -1.421875 17.65625 -0.515625 
Q 12.796875 0.390625 7.625 2.203125 
L 7.625 11.71875 
Q 11.71875 9.328125 16.59375 8.109375 
Q 21.484375 6.890625 26.8125 6.890625 
Q 36.078125 6.890625 40.9375 10.546875 
Q 45.796875 14.203125 45.796875 21.1875 
Q 45.796875 27.640625 41.28125 31.265625 
Q 36.765625 34.90625 28.71875 34.90625 
L 20.21875 34.90625 
L 20.21875 43.015625 
L 29.109375 43.015625 
Q 36.375 43.015625 40.234375 45.921875 
Q 44.09375 48.828125 44.09375 54.296875 
Q 44.09375 59.90625 40.109375 62.90625 
Q 36.140625 65.921875 28.71875 65.921875 
Q 24.65625 65.921875 20.015625 65.03125 
Q 15.375 64.15625 9.8125 62.3125 
L 9.8125 71.09375 
Q 15.4375 72.65625 20.34375 73.4375 
Q 25.25 74.21875 29.59375 74.21875 
Q 40.828125 74.21875 47.359375 69.109375 
Q 53.90625 64.015625 53.90625 55.328125 
Q 53.90625 49.265625 50.4375 45.09375 
Q 46.96875 40.921875 40.578125 39.3125 
z
" id="DejaVuSans-51"/>
      </defs>
      <g transform="translate(360.122087 334.998438)scale(0.1 -0.1)">
       <use xlink:href="#DejaVuSans-51"/>
      </g>
     </g>
    </g>
    <g id="xtick_5">
     <g id="line2d_9">
      <path clip-path="url(#p75ccb2c6eb)" d="M 445.949904 320.4 
L 445.949904 43.2 
" style="fill:none;stroke:#b0b0b0;stroke-linecap:square;stroke-width:0.8;"/>
     </g>
     <g id="line2d_10">
      <g>
       <use style="stroke:#000000;stroke-width:0.8;" x="445.949904" xlink:href="#md93c228ad4" y="320.4"/>
      </g>
     </g>
     <g id="text_5">
      <!-- 4 -->
      <defs>
       <path d="M 37.796875 64.3125 
L 12.890625 25.390625 
L 37.796875 25.390625 
z
M 35.203125 72.90625 
L 47.609375 72.90625 
L 47.609375 25.390625 
L 58.015625 25.390625 
L 58.015625 17.1875 
L 47.609375 17.1875 
L 47.609375 0 
L 37.796875 0 
L 37.796875 17.1875 
L 4.890625 17.1875 
L 4.890625 26.703125 
z
" id="DejaVuSans-52"/>
      </defs>
      <g transform="translate(442.768654 334.998438)scale(0.1 -0.1)">
       <use xlink:href="#DejaVuSans-52"/>
      </g>
     </g>
    </g>
    <g id="xtick_6">
     <g id="line2d_11">
      <path clip-path="url(#p75ccb2c6eb)" d="M 528.596471 320.4 
L 528.596471 43.2 
" style="fill:none;stroke:#b0b0b0;stroke-linecap:square;stroke-width:0.8;"/>
     </g>
     <g id="line2d_12">
      <g>
       <use style="stroke:#000000;stroke-width:0.8;" x="528.596471" xlink:href="#md93c228ad4" y="320.4"/>
      </g>
     </g>
     <g id="text_6">
      <!-- 5 -->
      <defs>
       <path d="M 10.796875 72.90625 
L 49.515625 72.90625 
L 49.515625 64.59375 
L 19.828125 64.59375 
L 19.828125 46.734375 
Q 21.96875 47.46875 24.109375 47.828125 
Q 26.265625 48.1875 28.421875 48.1875 
Q 40.625 48.1875 47.75 41.5 
Q 54.890625 34.8125 54.890625 23.390625 
Q 54.890625 11.625 47.5625 5.09375 
Q 40.234375 -1.421875 26.90625 -1.421875 
Q 22.3125 -1.421875 17.546875 -0.640625 
Q 12.796875 0.140625 7.71875 1.703125 
L 7.71875 11.625 
Q 12.109375 9.234375 16.796875 8.0625 
Q 21.484375 6.890625 26.703125 6.890625 
Q 35.15625 6.890625 40.078125 11.328125 
Q 45.015625 15.765625 45.015625 23.390625 
Q 45.015625 31 40.078125 35.4375 
Q 35.15625 39.890625 26.703125 39.890625 
Q 22.75 39.890625 18.8125 39.015625 
Q 14.890625 38.140625 10.796875 36.28125 
z
" id="DejaVuSans-53"/>
      </defs>
      <g transform="translate(525.415221 334.998438)scale(0.1 -0.1)">
       <use xlink:href="#DejaVuSans-53"/>
      </g>
     </g>
    </g>
    <g id="xtick_7">
     <g id="line2d_13">
      <path clip-path="url(#p75ccb2c6eb)" d="M 611.243038 320.4 
L 611.243038 43.2 
" style="fill:none;stroke:#b0b0b0;stroke-linecap:square;stroke-width:0.8;"/>
     </g>
     <g id="line2d_14">
      <g>
       <use style="stroke:#000000;stroke-width:0.8;" x="611.243038" xlink:href="#md93c228ad4" y="320.4"/>
      </g>
     </g>
     <g id="text_7">
      <!-- 6 -->
      <defs>
       <path d="M 33.015625 40.375 
Q 26.375 40.375 22.484375 35.828125 
Q 18.609375 31.296875 18.609375 23.390625 
Q 18.609375 15.53125 22.484375 10.953125 
Q 26.375 6.390625 33.015625 6.390625 
Q 39.65625 6.390625 43.53125 10.953125 
Q 47.40625 15.53125 47.40625 23.390625 
Q 47.40625 31.296875 43.53125 35.828125 
Q 39.65625 40.375 33.015625 40.375 
z
M 52.59375 71.296875 
L 52.59375 62.3125 
Q 48.875 64.0625 45.09375 64.984375 
Q 41.3125 65.921875 37.59375 65.921875 
Q 27.828125 65.921875 22.671875 59.328125 
Q 17.53125 52.734375 16.796875 39.40625 
Q 19.671875 43.65625 24.015625 45.921875 
Q 28.375 48.1875 33.59375 48.1875 
Q 44.578125 48.1875 50.953125 41.515625 
Q 57.328125 34.859375 57.328125 23.390625 
Q 57.328125 12.15625 50.6875 5.359375 
Q 44.046875 -1.421875 33.015625 -1.421875 
Q 20.359375 -1.421875 13.671875 8.265625 
Q 6.984375 17.96875 6.984375 36.375 
Q 6.984375 53.65625 15.1875 63.9375 
Q 23.390625 74.21875 37.203125 74.21875 
Q 40.921875 74.21875 44.703125 73.484375 
Q 48.484375 72.75 52.59375 71.296875 
z
" id="DejaVuSans-54"/>
      </defs>
      <g transform="translate(608.061788 334.998438)scale(0.1 -0.1)">
       <use xlink:href="#DejaVuSans-54"/>
      </g>
     </g>
    </g>
    <g id="text_8">
     <!-- Environment Steps -->
     <defs>
      <path d="M 9.8125 72.90625 
L 55.90625 72.90625 
L 55.90625 64.59375 
L 19.671875 64.59375 
L 19.671875 43.015625 
L 54.390625 43.015625 
L 54.390625 34.71875 
L 19.671875 34.71875 
L 19.671875 8.296875 
L 56.78125 8.296875 
L 56.78125 0 
L 9.8125 0 
z
" id="DejaVuSans-69"/>
      <path d="M 54.890625 33.015625 
L 54.890625 0 
L 45.90625 0 
L 45.90625 32.71875 
Q 45.90625 40.484375 42.875 44.328125 
Q 39.84375 48.1875 33.796875 48.1875 
Q 26.515625 48.1875 22.3125 43.546875 
Q 18.109375 38.921875 18.109375 30.90625 
L 18.109375 0 
L 9.078125 0 
L 9.078125 54.6875 
L 18.109375 54.6875 
L 18.109375 46.1875 
Q 21.34375 51.125 25.703125 53.5625 
Q 30.078125 56 35.796875 56 
Q 45.21875 56 50.046875 50.171875 
Q 54.890625 44.34375 54.890625 33.015625 
z
" id="DejaVuSans-110"/>
      <path d="M 2.984375 54.6875 
L 12.5 54.6875 
L 29.59375 8.796875 
L 46.6875 54.6875 
L 56.203125 54.6875 
L 35.6875 0 
L 23.484375 0 
z
" id="DejaVuSans-118"/>
      <path d="M 9.421875 54.6875 
L 18.40625 54.6875 
L 18.40625 0 
L 9.421875 0 
z
M 9.421875 75.984375 
L 18.40625 75.984375 
L 18.40625 64.59375 
L 9.421875 64.59375 
z
" id="DejaVuSans-105"/>
      <path d="M 41.109375 46.296875 
Q 39.59375 47.171875 37.8125 47.578125 
Q 36.03125 48 33.890625 48 
Q 26.265625 48 22.1875 43.046875 
Q 18.109375 38.09375 18.109375 28.8125 
L 18.109375 0 
L 9.078125 0 
L 9.078125 54.6875 
L 18.109375 54.6875 
L 18.109375 46.1875 
Q 20.953125 51.171875 25.484375 53.578125 
Q 30.03125 56 36.53125 56 
Q 37.453125 56 38.578125 55.875 
Q 39.703125 55.765625 41.0625 55.515625 
z
" id="DejaVuSans-114"/>
      <path d="M 30.609375 48.390625 
Q 23.390625 48.390625 19.1875 42.75 
Q 14.984375 37.109375 14.984375 27.296875 
Q 14.984375 17.484375 19.15625 11.84375 
Q 23.34375 6.203125 30.609375 6.203125 
Q 37.796875 6.203125 41.984375 11.859375 
Q 46.1875 17.53125 46.1875 27.296875 
Q 46.1875 37.015625 41.984375 42.703125 
Q 37.796875 48.390625 30.609375 48.390625 
z
M 30.609375 56 
Q 42.328125 56 49.015625 48.375 
Q 55.71875 40.765625 55.71875 27.296875 
Q 55.71875 13.875 49.015625 6.21875 
Q 42.328125 -1.421875 30.609375 -1.421875 
Q 18.84375 -1.421875 12.171875 6.21875 
Q 5.515625 13.875 5.515625 27.296875 
Q 5.515625 40.765625 12.171875 48.375 
Q 18.84375 56 30.609375 56 
z
" id="DejaVuSans-111"/>
      <path d="M 52 44.1875 
Q 55.375 50.25 60.0625 53.125 
Q 64.75 56 71.09375 56 
Q 79.640625 56 84.28125 50.015625 
Q 88.921875 44.046875 88.921875 33.015625 
L 88.921875 0 
L 79.890625 0 
L 79.890625 32.71875 
Q 79.890625 40.578125 77.09375 44.375 
Q 74.3125 48.1875 68.609375 48.1875 
Q 61.625 48.1875 57.5625 43.546875 
Q 53.515625 38.921875 53.515625 30.90625 
L 53.515625 0 
L 44.484375 0 
L 44.484375 32.71875 
Q 44.484375 40.625 41.703125 44.40625 
Q 38.921875 48.1875 33.109375 48.1875 
Q 26.21875 48.1875 22.15625 43.53125 
Q 18.109375 38.875 18.109375 30.90625 
L 18.109375 0 
L 9.078125 0 
L 9.078125 54.6875 
L 18.109375 54.6875 
L 18.109375 46.1875 
Q 21.1875 51.21875 25.484375 53.609375 
Q 29.78125 56 35.6875 56 
Q 41.65625 56 45.828125 52.96875 
Q 50 49.953125 52 44.1875 
z
" id="DejaVuSans-109"/>
      <path d="M 56.203125 29.59375 
L 56.203125 25.203125 
L 14.890625 25.203125 
Q 15.484375 15.921875 20.484375 11.0625 
Q 25.484375 6.203125 34.421875 6.203125 
Q 39.59375 6.203125 44.453125 7.46875 
Q 49.3125 8.734375 54.109375 11.28125 
L 54.109375 2.78125 
Q 49.265625 0.734375 44.1875 -0.34375 
Q 39.109375 -1.421875 33.890625 -1.421875 
Q 20.796875 -1.421875 13.15625 6.1875 
Q 5.515625 13.8125 5.515625 26.8125 
Q 5.515625 40.234375 12.765625 48.109375 
Q 20.015625 56 32.328125 56 
Q 43.359375 56 49.78125 48.890625 
Q 56.203125 41.796875 56.203125 29.59375 
z
M 47.21875 32.234375 
Q 47.125 39.59375 43.09375 43.984375 
Q 39.0625 48.390625 32.421875 48.390625 
Q 24.90625 48.390625 20.390625 44.140625 
Q 15.875 39.890625 15.1875 32.171875 
z
" id="DejaVuSans-101"/>
      <path d="M 18.3125 70.21875 
L 18.3125 54.6875 
L 36.8125 54.6875 
L 36.8125 47.703125 
L 18.3125 47.703125 
L 18.3125 18.015625 
Q 18.3125 11.328125 20.140625 9.421875 
Q 21.96875 7.515625 27.59375 7.515625 
L 36.8125 7.515625 
L 36.8125 0 
L 27.59375 0 
Q 17.1875 0 13.234375 3.875 
Q 9.28125 7.765625 9.28125 18.015625 
L 9.28125 47.703125 
L 2.6875 47.703125 
L 2.6875 54.6875 
L 9.28125 54.6875 
L 9.28125 70.21875 
z
" id="DejaVuSans-116"/>
      <path id="DejaVuSans-32"/>
      <path d="M 53.515625 70.515625 
L 53.515625 60.890625 
Q 47.90625 63.578125 42.921875 64.890625 
Q 37.9375 66.21875 33.296875 66.21875 
Q 25.25 66.21875 20.875 63.09375 
Q 16.5 59.96875 16.5 54.203125 
Q 16.5 49.359375 19.40625 46.890625 
Q 22.3125 44.4375 30.421875 42.921875 
L 36.375 41.703125 
Q 47.40625 39.59375 52.65625 34.296875 
Q 57.90625 29 57.90625 20.125 
Q 57.90625 9.515625 50.796875 4.046875 
Q 43.703125 -1.421875 29.984375 -1.421875 
Q 24.8125 -1.421875 18.96875 -0.25 
Q 13.140625 0.921875 6.890625 3.21875 
L 6.890625 13.375 
Q 12.890625 10.015625 18.65625 8.296875 
Q 24.421875 6.59375 29.984375 6.59375 
Q 38.421875 6.59375 43.015625 9.90625 
Q 47.609375 13.234375 47.609375 19.390625 
Q 47.609375 24.75 44.3125 27.78125 
Q 41.015625 30.8125 33.5 32.328125 
L 27.484375 33.5 
Q 16.453125 35.6875 11.515625 40.375 
Q 6.59375 45.0625 6.59375 53.421875 
Q 6.59375 63.09375 13.40625 68.65625 
Q 20.21875 74.21875 32.171875 74.21875 
Q 37.3125 74.21875 42.625 73.28125 
Q 47.953125 72.359375 53.515625 70.515625 
z
" id="DejaVuSans-83"/>
      <path d="M 18.109375 8.203125 
L 18.109375 -20.796875 
L 9.078125 -20.796875 
L 9.078125 54.6875 
L 18.109375 54.6875 
L 18.109375 46.390625 
Q 20.953125 51.265625 25.265625 53.625 
Q 29.59375 56 35.59375 56 
Q 45.5625 56 51.78125 48.09375 
Q 58.015625 40.1875 58.015625 27.296875 
Q 58.015625 14.40625 51.78125 6.484375 
Q 45.5625 -1.421875 35.59375 -1.421875 
Q 29.59375 -1.421875 25.265625 0.953125 
Q 20.953125 3.328125 18.109375 8.203125 
z
M 48.6875 27.296875 
Q 48.6875 37.203125 44.609375 42.84375 
Q 40.53125 48.484375 33.40625 48.484375 
Q 26.265625 48.484375 22.1875 42.84375 
Q 18.109375 37.203125 18.109375 27.296875 
Q 18.109375 17.390625 22.1875 11.75 
Q 26.265625 6.109375 33.40625 6.109375 
Q 40.53125 6.109375 44.609375 11.75 
Q 48.6875 17.390625 48.6875 27.296875 
z
" id="DejaVuSans-112"/>
      <path d="M 44.28125 53.078125 
L 44.28125 44.578125 
Q 40.484375 46.53125 36.375 47.5 
Q 32.28125 48.484375 27.875 48.484375 
Q 21.1875 48.484375 17.84375 46.4375 
Q 14.5 44.390625 14.5 40.28125 
Q 14.5 37.15625 16.890625 35.375 
Q 19.28125 33.59375 26.515625 31.984375 
L 29.59375 31.296875 
Q 39.15625 29.25 43.1875 25.515625 
Q 47.21875 21.78125 47.21875 15.09375 
Q 47.21875 7.46875 41.1875 3.015625 
Q 35.15625 -1.421875 24.609375 -1.421875 
Q 20.21875 -1.421875 15.453125 -0.5625 
Q 10.6875 0.296875 5.421875 2 
L 5.421875 11.28125 
Q 10.40625 8.6875 15.234375 7.390625 
Q 20.0625 6.109375 24.8125 6.109375 
Q 31.15625 6.109375 34.5625 8.28125 
Q 37.984375 10.453125 37.984375 14.40625 
Q 37.984375 18.0625 35.515625 20.015625 
Q 33.0625 21.96875 24.703125 23.78125 
L 21.578125 24.515625 
Q 13.234375 26.265625 9.515625 29.90625 
Q 5.8125 33.546875 5.8125 39.890625 
Q 5.8125 47.609375 11.28125 51.796875 
Q 16.75 56 26.8125 56 
Q 31.78125 56 36.171875 55.265625 
Q 40.578125 54.546875 44.28125 53.078125 
z
" id="DejaVuSans-115"/>
     </defs>
     <g transform="translate(321.497656 348.676562)scale(0.1 -0.1)">
      <use xlink:href="#DejaVuSans-69"/>
      <use x="63.183594" xlink:href="#DejaVuSans-110"/>
      <use x="126.5625" xlink:href="#DejaVuSans-118"/>
      <use x="185.742188" xlink:href="#DejaVuSans-105"/>
      <use x="213.525391" xlink:href="#DejaVuSans-114"/>
      <use x="252.388672" xlink:href="#DejaVuSans-111"/>
      <use x="313.570312" xlink:href="#DejaVuSans-110"/>
      <use x="376.949219" xlink:href="#DejaVuSans-109"/>
      <use x="474.361328" xlink:href="#DejaVuSans-101"/>
      <use x="535.884766" xlink:href="#DejaVuSans-110"/>
      <use x="599.263672" xlink:href="#DejaVuSans-116"/>
      <use x="638.472656" xlink:href="#DejaVuSans-32"/>
      <use x="670.259766" xlink:href="#DejaVuSans-83"/>
      <use x="733.736328" xlink:href="#DejaVuSans-116"/>
      <use x="772.945312" xlink:href="#DejaVuSans-101"/>
      <use x="834.46875" xlink:href="#DejaVuSans-112"/>
      <use x="897.945312" xlink:href="#DejaVuSans-115"/>
     </g>
    </g>
    <g id="text_9">
     <!-- 1e6 -->
     <g transform="translate(629.121875 347.676562)scale(0.1 -0.1)">
      <use xlink:href="#DejaVuSans-49"/>
      <use x="63.623047" xlink:href="#DejaVuSans-101"/>
      <use x="125.146484" xlink:href="#DejaVuSans-54"/>
     </g>
    </g>
   </g>
   <g id="matplotlib.axis_2">
    <g id="ytick_1">
     <g id="line2d_15">
      <path clip-path="url(#p75ccb2c6eb)" d="M 90 279.558621 
L 648 279.558621 
" style="fill:none;stroke:#b0b0b0;stroke-linecap:square;stroke-width:0.8;"/>
     </g>
     <g id="line2d_16">
      <defs>
       <path d="M 0 0 
L -3.5 0 
" id="me80cf059cc" style="stroke:#000000;stroke-width:0.8;"/>
      </defs>
      <g>
       <use style="stroke:#000000;stroke-width:0.8;" x="90" xlink:href="#me80cf059cc" y="279.558621"/>
      </g>
     </g>
     <g id="text_10">
      <!-- 50 -->
      <g transform="translate(70.275 283.357839)scale(0.1 -0.1)">
       <use xlink:href="#DejaVuSans-53"/>
       <use x="63.623047" xlink:href="#DejaVuSans-48"/>
      </g>
     </g>
    </g>
    <g id="ytick_2">
     <g id="line2d_17">
      <path clip-path="url(#p75ccb2c6eb)" d="M 90 225.248276 
L 648 225.248276 
" style="fill:none;stroke:#b0b0b0;stroke-linecap:square;stroke-width:0.8;"/>
     </g>
     <g id="line2d_18">
      <g>
       <use style="stroke:#000000;stroke-width:0.8;" x="90" xlink:href="#me80cf059cc" y="225.248276"/>
      </g>
     </g>
     <g id="text_11">
      <!-- 100 -->
      <g transform="translate(63.9125 229.047495)scale(0.1 -0.1)">
       <use xlink:href="#DejaVuSans-49"/>
       <use x="63.623047" xlink:href="#DejaVuSans-48"/>
       <use x="127.246094" xlink:href="#DejaVuSans-48"/>
      </g>
     </g>
    </g>
    <g id="ytick_3">
     <g id="line2d_19">
      <path clip-path="url(#p75ccb2c6eb)" d="M 90 170.937931 
L 648 170.937931 
" style="fill:none;stroke:#b0b0b0;stroke-linecap:square;stroke-width:0.8;"/>
     </g>
     <g id="line2d_20">
      <g>
       <use style="stroke:#000000;stroke-width:0.8;" x="90" xlink:href="#me80cf059cc" y="170.937931"/>
      </g>
     </g>
     <g id="text_12">
      <!-- 150 -->
      <g transform="translate(63.9125 174.73715)scale(0.1 -0.1)">
       <use xlink:href="#DejaVuSans-49"/>
       <use x="63.623047" xlink:href="#DejaVuSans-53"/>
       <use x="127.246094" xlink:href="#DejaVuSans-48"/>
      </g>
     </g>
    </g>
    <g id="ytick_4">
     <g id="line2d_21">
      <path clip-path="url(#p75ccb2c6eb)" d="M 90 116.627586 
L 648 116.627586 
" style="fill:none;stroke:#b0b0b0;stroke-linecap:square;stroke-width:0.8;"/>
     </g>
     <g id="line2d_22">
      <g>
       <use style="stroke:#000000;stroke-width:0.8;" x="90" xlink:href="#me80cf059cc" y="116.627586"/>
      </g>
     </g>
     <g id="text_13">
      <!-- 200 -->
      <g transform="translate(63.9125 120.426805)scale(0.1 -0.1)">
       <use xlink:href="#DejaVuSans-50"/>
       <use x="63.623047" xlink:href="#DejaVuSans-48"/>
       <use x="127.246094" xlink:href="#DejaVuSans-48"/>
      </g>
     </g>
    </g>
    <g id="ytick_5">
     <g id="line2d_23">
      <path clip-path="url(#p75ccb2c6eb)" d="M 90 62.317241 
L 648 62.317241 
" style="fill:none;stroke:#b0b0b0;stroke-linecap:square;stroke-width:0.8;"/>
     </g>
     <g id="line2d_24">
      <g>
       <use style="stroke:#000000;stroke-width:0.8;" x="90" xlink:href="#me80cf059cc" y="62.317241"/>
      </g>
     </g>
     <g id="text_14">
      <!-- 250 -->
      <g transform="translate(63.9125 66.11646)scale(0.1 -0.1)">
       <use xlink:href="#DejaVuSans-50"/>
       <use x="63.623047" xlink:href="#DejaVuSans-53"/>
       <use x="127.246094" xlink:href="#DejaVuSans-48"/>
      </g>
     </g>
    </g>
    <g id="text_15">
     <!-- Average Return -->
     <defs>
      <path d="M 34.1875 63.1875 
L 20.796875 26.90625 
L 47.609375 26.90625 
z
M 28.609375 72.90625 
L 39.796875 72.90625 
L 67.578125 0 
L 57.328125 0 
L 50.6875 18.703125 
L 17.828125 18.703125 
L 11.1875 0 
L 0.78125 0 
z
" id="DejaVuSans-65"/>
      <path d="M 34.28125 27.484375 
Q 23.390625 27.484375 19.1875 25 
Q 14.984375 22.515625 14.984375 16.5 
Q 14.984375 11.71875 18.140625 8.90625 
Q 21.296875 6.109375 26.703125 6.109375 
Q 34.1875 6.109375 38.703125 11.40625 
Q 43.21875 16.703125 43.21875 25.484375 
L 43.21875 27.484375 
z
M 52.203125 31.203125 
L 52.203125 0 
L 43.21875 0 
L 43.21875 8.296875 
Q 40.140625 3.328125 35.546875 0.953125 
Q 30.953125 -1.421875 24.3125 -1.421875 
Q 15.921875 -1.421875 10.953125 3.296875 
Q 6 8.015625 6 15.921875 
Q 6 25.140625 12.171875 29.828125 
Q 18.359375 34.515625 30.609375 34.515625 
L 43.21875 34.515625 
L 43.21875 35.40625 
Q 43.21875 41.609375 39.140625 45 
Q 35.0625 48.390625 27.6875 48.390625 
Q 23 48.390625 18.546875 47.265625 
Q 14.109375 46.140625 10.015625 43.890625 
L 10.015625 52.203125 
Q 14.9375 54.109375 19.578125 55.046875 
Q 24.21875 56 28.609375 56 
Q 40.484375 56 46.34375 49.84375 
Q 52.203125 43.703125 52.203125 31.203125 
z
" id="DejaVuSans-97"/>
      <path d="M 45.40625 27.984375 
Q 45.40625 37.75 41.375 43.109375 
Q 37.359375 48.484375 30.078125 48.484375 
Q 22.859375 48.484375 18.828125 43.109375 
Q 14.796875 37.75 14.796875 27.984375 
Q 14.796875 18.265625 18.828125 12.890625 
Q 22.859375 7.515625 30.078125 7.515625 
Q 37.359375 7.515625 41.375 12.890625 
Q 45.40625 18.265625 45.40625 27.984375 
z
M 54.390625 6.78125 
Q 54.390625 -7.171875 48.1875 -13.984375 
Q 42 -20.796875 29.203125 -20.796875 
Q 24.46875 -20.796875 20.265625 -20.09375 
Q 16.0625 -19.390625 12.109375 -17.921875 
L 12.109375 -9.1875 
Q 16.0625 -11.328125 19.921875 -12.34375 
Q 23.78125 -13.375 27.78125 -13.375 
Q 36.625 -13.375 41.015625 -8.765625 
Q 45.40625 -4.15625 45.40625 5.171875 
L 45.40625 9.625 
Q 42.625 4.78125 38.28125 2.390625 
Q 33.9375 0 27.875 0 
Q 17.828125 0 11.671875 7.65625 
Q 5.515625 15.328125 5.515625 27.984375 
Q 5.515625 40.671875 11.671875 48.328125 
Q 17.828125 56 27.875 56 
Q 33.9375 56 38.28125 53.609375 
Q 42.625 51.21875 45.40625 46.390625 
L 45.40625 54.6875 
L 54.390625 54.6875 
z
" id="DejaVuSans-103"/>
      <path d="M 44.390625 34.1875 
Q 47.5625 33.109375 50.5625 29.59375 
Q 53.5625 26.078125 56.59375 19.921875 
L 66.609375 0 
L 56 0 
L 46.6875 18.703125 
Q 43.0625 26.03125 39.671875 28.421875 
Q 36.28125 30.8125 30.421875 30.8125 
L 19.671875 30.8125 
L 19.671875 0 
L 9.8125 0 
L 9.8125 72.90625 
L 32.078125 72.90625 
Q 44.578125 72.90625 50.734375 67.671875 
Q 56.890625 62.453125 56.890625 51.90625 
Q 56.890625 45.015625 53.6875 40.46875 
Q 50.484375 35.9375 44.390625 34.1875 
z
M 19.671875 64.796875 
L 19.671875 38.921875 
L 32.078125 38.921875 
Q 39.203125 38.921875 42.84375 42.21875 
Q 46.484375 45.515625 46.484375 51.90625 
Q 46.484375 58.296875 42.84375 61.546875 
Q 39.203125 64.796875 32.078125 64.796875 
z
" id="DejaVuSans-82"/>
      <path d="M 8.5 21.578125 
L 8.5 54.6875 
L 17.484375 54.6875 
L 17.484375 21.921875 
Q 17.484375 14.15625 20.5 10.265625 
Q 23.53125 6.390625 29.59375 6.390625 
Q 36.859375 6.390625 41.078125 11.03125 
Q 45.3125 15.671875 45.3125 23.6875 
L 45.3125 54.6875 
L 54.296875 54.6875 
L 54.296875 0 
L 45.3125 0 
L 45.3125 8.40625 
Q 42.046875 3.421875 37.71875 1 
Q 33.40625 -1.421875 27.6875 -1.421875 
Q 18.265625 -1.421875 13.375 4.4375 
Q 8.5 10.296875 8.5 21.578125 
z
M 31.109375 56 
z
" id="DejaVuSans-117"/>
     </defs>
     <g transform="translate(57.832812 220.513281)rotate(-90)scale(0.1 -0.1)">
      <use xlink:href="#DejaVuSans-65"/>
      <use x="62.533203" xlink:href="#DejaVuSans-118"/>
      <use x="121.712891" xlink:href="#DejaVuSans-101"/>
      <use x="183.236328" xlink:href="#DejaVuSans-114"/>
      <use x="224.349609" xlink:href="#DejaVuSans-97"/>
      <use x="285.628906" xlink:href="#DejaVuSans-103"/>
      <use x="349.105469" xlink:href="#DejaVuSans-101"/>
      <use x="410.628906" xlink:href="#DejaVuSans-32"/>
      <use x="442.416016" xlink:href="#DejaVuSans-82"/>
      <use x="507.398438" xlink:href="#DejaVuSans-101"/>
      <use x="568.921875" xlink:href="#DejaVuSans-116"/>
      <use x="608.130859" xlink:href="#DejaVuSans-117"/>
      <use x="671.509766" xlink:href="#DejaVuSans-114"/>
      <use x="710.873047" xlink:href="#DejaVuSans-110"/>
     </g>
    </g>
   </g>
   <g id="line2d_25">
    <path clip-path="url(#p75ccb2c6eb)" d="M 115.363636 292.593103 
L 115.871417 290.058622 
L 116.379197 289.877586 
L 116.886978 281.549999 
L 117.394758 277.024139 
L 117.902539 280.28276 
L 118.410319 280.28276 
L 118.9181 275.937932 
L 119.42588 269.239655 
L 119.933661 280.101724 
L 120.441441 272.498276 
L 120.949222 272.860343 
L 121.457002 265.799999 
L 121.964783 269.601723 
L 122.472563 262.722414 
L 122.980344 257.653451 
L 123.488124 260.006897 
L 124.503686 252.946552 
L 125.011466 247.334486 
L 125.519247 251.498273 
L 126.027027 251.860345 
L 126.534808 237.196552 
L 127.042588 243.532761 
L 127.550369 240.455172 
L 128.058149 238.282759 
L 128.56593 234.481034 
L 129.07371 234.843106 
L 129.581491 233.213796 
L 130.089271 233.575859 
L 130.597052 233.575859 
L 131.104832 221.989655 
L 131.612613 222.89483 
L 132.120393 222.71379 
L 132.628174 214.92931 
L 133.135954 218.368963 
L 133.643735 211.308618 
L 134.151515 226.153451 
L 134.659296 214.748279 
L 135.167076 209.317244 
L 135.674857 197.368968 
L 136.182637 208.955172 
L 136.690418 213.3 
L 137.198198 214.92931 
L 138.213759 204.972417 
L 138.72154 195.558618 
L 139.22932 189.584488 
L 139.737101 199.722414 
L 140.244881 177.093109 
L 140.752662 185.963788 
L 141.260442 185.058621 
L 141.768223 192.662069 
L 142.276003 185.239661 
L 143.291564 167.136207 
L 143.799345 169.670684 
L 144.307125 145.774132 
L 144.814906 174.920695 
L 145.322686 158.808615 
L 145.830467 156.455178 
L 146.338247 174.015512 
L 146.846028 176.368966 
L 147.353808 166.412063 
L 148.369369 115.541379 
L 149.38493 141.067241 
L 149.892711 135.455167 
L 150.400491 137.989661 
L 150.908272 101.782753 
L 151.416052 128.937926 
L 151.923833 138.351724 
L 152.431613 121.334477 
L 152.939394 146.498276 
L 153.447174 129.662069 
L 153.954955 121.877581 
L 154.462735 118.8 
L 154.970516 131.291379 
L 155.986077 109.386201 
L 156.493857 123.868971 
L 157.001638 87.11896 
L 157.509419 111.377592 
L 158.017199 100.877586 
L 158.52498 107.937931 
L 159.03276 105.584477 
L 159.540541 89.653454 
L 160.048321 78.791385 
L 160.556102 93.636201 
L 161.063882 98.162069 
L 161.571663 103.774143 
L 162.079443 82.050006 
L 162.587224 92.549994 
L 163.095004 79.153448 
L 163.602785 92.731034 
L 164.110565 82.955172 
L 164.618346 98.886212 
L 165.126126 78.248281 
L 165.633907 78.610345 
L 166.141687 92.187931 
L 166.649468 76.618971 
L 167.157248 76.256891 
L 167.665029 68.834483 
L 168.172809 92.912074 
L 168.68059 79.153448 
L 169.18837 79.696552 
L 169.696151 67.748276 
L 170.203931 77.524138 
L 170.711712 63.041385 
L 171.219492 66.481029 
L 171.727273 68.834483 
L 172.235053 66.118966 
L 172.742834 65.213799 
L 173.250614 69.015523 
L 173.758395 67.567236 
L 174.266175 65.575862 
L 174.773956 59.058621 
L 175.281736 77.524138 
L 175.789517 55.8 
L 176.297297 65.213799 
L 176.805078 58.877581 
L 177.312858 58.877581 
L 177.820639 57.972414 
L 178.328419 56.524143 
L 178.8362 55.8 
L 179.34398 55.8 
L 179.851761 62.136201 
L 180.359541 55.8 
L 180.867322 55.8 
L 181.375102 59.239661 
L 181.882883 55.8 
L 182.390663 55.8 
L 182.898444 62.860345 
L 183.406224 64.851719 
L 183.914005 55.8 
L 184.421785 55.8 
L 184.929566 61.231034 
L 185.437346 56.524143 
L 185.945127 55.8 
L 186.960688 55.8 
L 187.468468 65.032759 
L 187.976249 56.524143 
L 188.484029 55.8 
L 188.99181 59.601724 
L 189.49959 55.8 
L 194.577396 55.8 
L 195.085176 63.584488 
L 195.592957 55.8 
L 196.608518 55.8 
L 197.116298 56.343103 
L 197.624079 55.8 
L 622.636364 55.8 
L 622.636364 55.8 
" style="fill:none;stroke:#a7093f;stroke-linecap:square;stroke-width:1.5;"/>
   </g>
   <g id="patch_3">
    <path d="M 90 320.4 
L 90 43.2 
" style="fill:none;stroke:#000000;stroke-linecap:square;stroke-linejoin:miter;stroke-width:0.8;"/>
   </g>
   <g id="patch_4">
    <path d="M 90 320.4 
L 648 320.4 
" style="fill:none;stroke:#000000;stroke-linecap:square;stroke-linejoin:miter;stroke-width:0.8;"/>
   </g>
   <g id="text_16">
    <!-- InvertedPendulum-v2 -->
    <defs>
     <path d="M 9.8125 72.90625 
L 19.671875 72.90625 
L 19.671875 0 
L 9.8125 0 
z
" id="DejaVuSans-73"/>
     <path d="M 45.40625 46.390625 
L 45.40625 75.984375 
L 54.390625 75.984375 
L 54.390625 0 
L 45.40625 0 
L 45.40625 8.203125 
Q 42.578125 3.328125 38.25 0.953125 
Q 33.9375 -1.421875 27.875 -1.421875 
Q 17.96875 -1.421875 11.734375 6.484375 
Q 5.515625 14.40625 5.515625 27.296875 
Q 5.515625 40.1875 11.734375 48.09375 
Q 17.96875 56 27.875 56 
Q 33.9375 56 38.25 53.625 
Q 42.578125 51.265625 45.40625 46.390625 
z
M 14.796875 27.296875 
Q 14.796875 17.390625 18.875 11.75 
Q 22.953125 6.109375 30.078125 6.109375 
Q 37.203125 6.109375 41.296875 11.75 
Q 45.40625 17.390625 45.40625 27.296875 
Q 45.40625 37.203125 41.296875 42.84375 
Q 37.203125 48.484375 30.078125 48.484375 
Q 22.953125 48.484375 18.875 42.84375 
Q 14.796875 37.203125 14.796875 27.296875 
z
" id="DejaVuSans-100"/>
     <path d="M 19.671875 64.796875 
L 19.671875 37.40625 
L 32.078125 37.40625 
Q 38.96875 37.40625 42.71875 40.96875 
Q 46.484375 44.53125 46.484375 51.125 
Q 46.484375 57.671875 42.71875 61.234375 
Q 38.96875 64.796875 32.078125 64.796875 
z
M 9.8125 72.90625 
L 32.078125 72.90625 
Q 44.34375 72.90625 50.609375 67.359375 
Q 56.890625 61.8125 56.890625 51.125 
Q 56.890625 40.328125 50.609375 34.8125 
Q 44.34375 29.296875 32.078125 29.296875 
L 19.671875 29.296875 
L 19.671875 0 
L 9.8125 0 
z
" id="DejaVuSans-80"/>
     <path d="M 9.421875 75.984375 
L 18.40625 75.984375 
L 18.40625 0 
L 9.421875 0 
z
" id="DejaVuSans-108"/>
     <path d="M 4.890625 31.390625 
L 31.203125 31.390625 
L 31.203125 23.390625 
L 4.890625 23.390625 
z
" id="DejaVuSans-45"/>
    </defs>
    <g transform="translate(304.66875 37.2)scale(0.12 -0.12)">
     <use xlink:href="#DejaVuSans-73"/>
     <use x="29.492188" xlink:href="#DejaVuSans-110"/>
     <use x="92.871094" xlink:href="#DejaVuSans-118"/>
     <use x="152.050781" xlink:href="#DejaVuSans-101"/>
     <use x="213.574219" xlink:href="#DejaVuSans-114"/>
     <use x="254.6875" xlink:href="#DejaVuSans-116"/>
     <use x="293.896484" xlink:href="#DejaVuSans-101"/>
     <use x="355.419922" xlink:href="#DejaVuSans-100"/>
     <use x="418.896484" xlink:href="#DejaVuSans-80"/>
     <use x="475.574219" xlink:href="#DejaVuSans-101"/>
     <use x="537.097656" xlink:href="#DejaVuSans-110"/>
     <use x="600.476562" xlink:href="#DejaVuSans-100"/>
     <use x="663.953125" xlink:href="#DejaVuSans-117"/>
     <use x="727.332031" xlink:href="#DejaVuSans-108"/>
     <use x="755.115234" xlink:href="#DejaVuSans-117"/>
     <use x="818.494141" xlink:href="#DejaVuSans-109"/>
     <use x="915.90625" xlink:href="#DejaVuSans-45"/>
     <use x="949.365234" xlink:href="#DejaVuSans-118"/>
     <use x="1008.544922" xlink:href="#DejaVuSans-50"/>
    </g>
   </g>
   <g id="legend_1">
    <g id="patch_5">
     <path d="M 97 315.4 
L 233.535937 315.4 
Q 235.535937 315.4 235.535937 313.4 
L 235.535937 299.721875 
Q 235.535937 297.721875 233.535937 297.721875 
L 97 297.721875 
Q 95 297.721875 95 299.721875 
L 95 313.4 
Q 95 315.4 97 315.4 
z
" style="fill:#ffffff;opacity:0.8;stroke:#cccccc;stroke-linejoin:miter;"/>
    </g>
    <g id="line2d_26">
     <path d="M 99 305.820312 
L 119 305.820312 
" style="fill:none;stroke:#a7093f;stroke-linecap:square;stroke-width:1.5;"/>
    </g>
    <g id="line2d_27"/>
    <g id="text_17">
     <!-- PG train/returns/max -->
     <defs>
      <path d="M 59.515625 10.40625 
L 59.515625 29.984375 
L 43.40625 29.984375 
L 43.40625 38.09375 
L 69.28125 38.09375 
L 69.28125 6.78125 
Q 63.578125 2.734375 56.6875 0.65625 
Q 49.8125 -1.421875 42 -1.421875 
Q 24.90625 -1.421875 15.25 8.5625 
Q 5.609375 18.5625 5.609375 36.375 
Q 5.609375 54.25 15.25 64.234375 
Q 24.90625 74.21875 42 74.21875 
Q 49.125 74.21875 55.546875 72.453125 
Q 61.96875 70.703125 67.390625 67.28125 
L 67.390625 56.78125 
Q 61.921875 61.421875 55.765625 63.765625 
Q 49.609375 66.109375 42.828125 66.109375 
Q 29.4375 66.109375 22.71875 58.640625 
Q 16.015625 51.171875 16.015625 36.375 
Q 16.015625 21.625 22.71875 14.15625 
Q 29.4375 6.6875 42.828125 6.6875 
Q 48.046875 6.6875 52.140625 7.59375 
Q 56.25 8.5 59.515625 10.40625 
z
" id="DejaVuSans-71"/>
      <path d="M 25.390625 72.90625 
L 33.6875 72.90625 
L 8.296875 -9.28125 
L 0 -9.28125 
z
" id="DejaVuSans-47"/>
      <path d="M 54.890625 54.6875 
L 35.109375 28.078125 
L 55.90625 0 
L 45.3125 0 
L 29.390625 21.484375 
L 13.484375 0 
L 2.875 0 
L 24.125 28.609375 
L 4.6875 54.6875 
L 15.28125 54.6875 
L 29.78125 35.203125 
L 44.28125 54.6875 
z
" id="DejaVuSans-120"/>
     </defs>
     <g transform="translate(127 309.320312)scale(0.1 -0.1)">
      <use xlink:href="#DejaVuSans-80"/>
      <use x="60.302734" xlink:href="#DejaVuSans-71"/>
      <use x="137.792969" xlink:href="#DejaVuSans-32"/>
      <use x="169.580078" xlink:href="#DejaVuSans-116"/>
      <use x="208.789062" xlink:href="#DejaVuSans-114"/>
      <use x="249.902344" xlink:href="#DejaVuSans-97"/>
      <use x="311.181641" xlink:href="#DejaVuSans-105"/>
      <use x="338.964844" xlink:href="#DejaVuSans-110"/>
      <use x="402.34375" xlink:href="#DejaVuSans-47"/>
      <use x="436.035156" xlink:href="#DejaVuSans-114"/>
      <use x="474.898438" xlink:href="#DejaVuSans-101"/>
      <use x="536.421875" xlink:href="#DejaVuSans-116"/>
      <use x="575.630859" xlink:href="#DejaVuSans-117"/>
      <use x="639.009766" xlink:href="#DejaVuSans-114"/>
      <use x="678.373047" xlink:href="#DejaVuSans-110"/>
      <use x="741.751953" xlink:href="#DejaVuSans-115"/>
      <use x="793.851562" xlink:href="#DejaVuSans-47"/>
      <use x="827.542969" xlink:href="#DejaVuSans-109"/>
      <use x="924.955078" xlink:href="#DejaVuSans-97"/>
      <use x="986.234375" xlink:href="#DejaVuSans-120"/>
     </g>
    </g>
   </g>
  </g>
 </g>
 <defs>
  <clipPath id="p75ccb2c6eb">
   <rect height="277.2" width="558" x="90" y="43.2"/>
  </clipPath>
 </defs>
</svg>
