<svg viewBox="0 0 330 200" xmlns="http://www.w3.org/2000/svg"><g><g><g><g><g><line x1="41.0620002746582" y1="177.95999908447266" x2="36.0620002746582" y2="177.95999908447266" style="visibility: inherit;" fill="rgb(0, 0, 0)" stroke="rgb(204, 204, 204)" stroke-width="1px"></line><line x1="41.0620002746582" y1="152.53714207240515" x2="36.0620002746582" y2="152.53714207240515" style="visibility: inherit;" fill="rgb(0, 0, 0)" stroke="rgb(204, 204, 204)" stroke-width="1px"></line><line x1="41.0620002746582" y1="127.11428506033761" x2="36.0620002746582" y2="127.11428506033761" style="visibility: inherit;" fill="rgb(0, 0, 0)" stroke="rgb(204, 204, 204)" stroke-width="1px"></line><line x1="41.0620002746582" y1="101.6914280482701" x2="36.0620002746582" y2="101.6914280482701" style="visibility: inherit;" fill="rgb(0, 0, 0)" stroke="rgb(204, 204, 204)" stroke-width="1px"></line><line x1="41.0620002746582" y1="76.26857103620257" x2="36.0620002746582" y2="76.26857103620257" style="visibility: inherit;" fill="rgb(0, 0, 0)" stroke="rgb(204, 204, 204)" stroke-width="1px"></line><line x1="41.0620002746582" y1="50.84571402413505" x2="36.0620002746582" y2="50.84571402413505" style="visibility: inherit;" fill="rgb(0, 0, 0)" stroke="rgb(204, 204, 204)" stroke-width="1px"></line><line x1="41.0620002746582" y1="25.42285701206754" x2="36.0620002746582" y2="25.42285701206754" style="visibility: inherit;" fill="rgb(0, 0, 0)" stroke="rgb(204, 204, 204)" stroke-width="1px"></line><line x1="41.0620002746582" y1="0" x2="36.0620002746582" y2="0" style="visibility: inherit;" fill="rgb(0, 0, 0)" stroke="rgb(204, 204, 204)" stroke-width="1px"></line></g><g transform="translate(31.062000274658203, 0)"><text style="text-anchor: end; visibility: hidden; font-family: &quot;Helvetica Neue&quot;, sans-serif; font-size: 12px; font-weight: 200;" x="0" y="177.95999908447266" dx="0em" dy="0.3em" fill="rgb(50, 49, 63)" stroke="none" stroke-width="1px">-50</text><text style="text-anchor: end; visibility: inherit; font-family: &quot;Helvetica Neue&quot;, sans-serif; font-size: 12px; font-weight: 200;" x="0" y="152.53714207240515" dx="0em" dy="0.3em" fill="rgb(50, 49, 63)" stroke="none" stroke-width="1px">0</text><text style="text-anchor: end; visibility: inherit; font-family: &quot;Helvetica Neue&quot;, sans-serif; font-size: 12px; font-weight: 200;" x="0" y="127.11428506033761" dx="0em" dy="0.3em" fill="rgb(50, 49, 63)" stroke="none" stroke-width="1px">50</text><text style="text-anchor: end; visibility: inherit; font-family: &quot;Helvetica Neue&quot;, sans-serif; font-size: 12px; font-weight: 200;" x="0" y="101.6914280482701" dx="0em" dy="0.3em" fill="rgb(50, 49, 63)" stroke="none" stroke-width="1px">100</text><text style="text-anchor: end; visibility: inherit; font-family: &quot;Helvetica Neue&quot;, sans-serif; font-size: 12px; font-weight: 200;" x="0" y="76.26857103620257" dx="0em" dy="0.3em" fill="rgb(50, 49, 63)" stroke="none" stroke-width="1px">150</text><text style="text-anchor: end; visibility: inherit; font-family: &quot;Helvetica Neue&quot;, sans-serif; font-size: 12px; font-weight: 200;" x="0" y="50.84571402413505" dx="0em" dy="0.3em" fill="rgb(50, 49, 63)" stroke="none" stroke-width="1px">200</text><text style="text-anchor: end; visibility: inherit; font-family: &quot;Helvetica Neue&quot;, sans-serif; font-size: 12px; font-weight: 200;" x="0" y="25.42285701206754" dx="0em" dy="0.3em" fill="rgb(50, 49, 63)" stroke="none" stroke-width="1px">250</text><text style="text-anchor: end; visibility: hidden; font-family: &quot;Helvetica Neue&quot;, sans-serif; font-size: 12px; font-weight: 200;" x="0" y="0" dx="0em" dy="0.3em" fill="rgb(50, 49, 63)" stroke="none" stroke-width="1px">300</text></g><line x1="41.0620002746582" y1="0" x2="41.0620002746582" y2="177.95999908447266" fill="rgb(0, 0, 0)" stroke="rgb(204, 204, 204)" stroke-width="1px"></line></g></g><g transform="translate(41, 0)" clip-path="url(#clip_0)"><clipPath id="clip_0"><rect width="288" height="177"></rect></clipPath><g><g><g><line x1="0" y1="0" x2="0" y2="177.95999908447266" fill="rgb(0, 0, 0)" stroke="rgb(60, 60, 60)" stroke-width="1px" opacity="0.25"></line><line x1="32.10422219170464" y1="0" x2="32.10422219170464" y2="177.95999908447266" fill="rgb(0, 0, 0)" stroke="rgb(60, 60, 60)" stroke-width="1px" opacity="0.25"></line><line x1="64.20844438340929" y1="0" x2="64.20844438340929" y2="177.95999908447266" fill="rgb(0, 0, 0)" stroke="rgb(60, 60, 60)" stroke-width="1px" opacity="0.25"></line><line x1="96.31266657511392" y1="0" x2="96.31266657511392" y2="177.95999908447266" fill="rgb(0, 0, 0)" stroke="rgb(60, 60, 60)" stroke-width="1px" opacity="0.25"></line><line x1="128.41688876681857" y1="0" x2="128.41688876681857" y2="177.95999908447266" fill="rgb(0, 0, 0)" stroke="rgb(60, 60, 60)" stroke-width="1px" opacity="0.25"></line><line x1="160.52111095852322" y1="0" x2="160.52111095852322" y2="177.95999908447266" fill="rgb(0, 0, 0)" stroke="rgb(60, 60, 60)" stroke-width="1px" opacity="0.25"></line><line x1="192.62533315022785" y1="0" x2="192.62533315022785" y2="177.95999908447266" fill="rgb(0, 0, 0)" stroke="rgb(60, 60, 60)" stroke-width="1px" opacity="0.25"></line><line x1="224.72955534193252" y1="0" x2="224.72955534193252" y2="177.95999908447266" fill="rgb(0, 0, 0)" stroke="rgb(60, 60, 60)" stroke-width="1px" opacity="0.25"></line><line x1="256.83377753363715" y1="0" x2="256.83377753363715" y2="177.95999908447266" fill="rgb(0, 0, 0)" stroke="rgb(60, 60, 60)" stroke-width="1px" opacity="0.25"></line><line x1="288.9379997253418" y1="0" x2="288.9379997253418" y2="177.95999908447266" fill="rgb(0, 0, 0)" stroke="rgb(60, 60, 60)" stroke-width="1px" opacity="0.25"></line></g><g><line x1="0" y1="177.95999908447266" x2="288.9379997253418" y2="177.95999908447266" fill="rgb(0, 0, 0)" stroke="rgb(60, 60, 60)" stroke-width="1px" opacity="0.25"></line><line x1="0" y1="152.53714207240515" x2="288.9379997253418" y2="152.53714207240515" fill="rgb(0, 0, 0)" stroke="rgb(60, 60, 60)" stroke-width="1px" opacity="0.25"></line><line x1="0" y1="127.11428506033761" x2="288.9379997253418" y2="127.11428506033761" fill="rgb(0, 0, 0)" stroke="rgb(60, 60, 60)" stroke-width="1px" opacity="0.25"></line><line x1="0" y1="101.6914280482701" x2="288.9379997253418" y2="101.6914280482701" fill="rgb(0, 0, 0)" stroke="rgb(60, 60, 60)" stroke-width="1px" opacity="0.25"></line><line x1="0" y1="76.26857103620257" x2="288.9379997253418" y2="76.26857103620257" fill="rgb(0, 0, 0)" stroke="rgb(60, 60, 60)" stroke-width="1px" opacity="0.25"></line><line x1="0" y1="50.84571402413505" x2="288.9379997253418" y2="50.84571402413505" fill="rgb(0, 0, 0)" stroke="rgb(60, 60, 60)" stroke-width="1px" opacity="0.25"></line><line x1="0" y1="25.42285701206754" x2="288.9379997253418" y2="25.42285701206754" fill="rgb(0, 0, 0)" stroke="rgb(60, 60, 60)" stroke-width="1px" opacity="0.25"></line><line x1="0" y1="0" x2="288.9379997253418" y2="0" fill="rgb(0, 0, 0)" stroke="rgb(60, 60, 60)" stroke-width="1px" opacity="0.25"></line></g></g></g><g><g><line x1="0" y1="152.53714207240515" x2="288.9379997253418" y2="152.53714207240515" fill="rgb(0, 0, 0)" stroke="rgb(153, 153, 153)" stroke-width="1.5px"></line></g></g><g><g><line x1="32.10422219170464" y1="0" x2="32.10422219170464" y2="177.95999908447266" fill="rgb(0, 0, 0)" stroke="rgb(153, 153, 153)" stroke-width="1.5px"></line></g></g><g><g><g><g><g><path style="fill: none;" stroke="rgb(255, 112, 67)" stroke-width="2px" d="M32.10422219170464,131.69039932250976L33.09046389743381,130.2780183773949L34.07670560316298,128.77302228833807L35.06294730889215,128.55560259066948L36.04918901462131,128.5806067227471L37.035430720350476,128.04533187165129L38.02167242607964,125.62220081929732L39.00791413180881,124.88105041002194L39.994155837537974,123.2827284998157L40.980397543267145,123.45767609906244L41.966639248996316,121.14279077034968L42.95288095472548,121.1148740707815L43.93912266045464,118.72591320239701L44.925364366183814,118.7788530440726L45.91160607191298,117.02853860731744L46.89784777764214,116.27891943676076L47.88408948337131,115.16682471710632L48.870331189100476,112.31874755836753L49.85657289482964,110.9876316792066L50.84281460055881,105.60886949345695L51.829056306287974,104.20225894371875L52.81529801201714,104.41349138125301L53.801539717746316,101.71764525892895L54.78778142347548,98.64715901402L55.77402312920464,98.44170521397255L56.760264834933814,96.44162778847475L57.74650654066298,94.53793357686385L58.73274824639215,95.97140520853263L59.71898995212131,95.691296336319L60.705231657850476,95.06009558515767L61.69147336357965,92.01061060806266L62.67771506930881,93.33767693808315L63.663956775037974,92.16032093674809L64.65019848076714,90.70998982821948L65.63644018649632,88.73612822886135L66.62268189222547,88.07284724821393L67.60892359795464,83.77874005893108L68.59516530368381,84.10722018190664L69.58140700941297,80.91189658979674L70.56764871514214,77.6438942419466L71.55389042087131,79.09773847685507L72.54013212660047,78.73525700830807L73.52637383232964,77.12320439474023L74.51261553805882,69.42669300952292L75.49885724378798,71.10021579120118L76.48509894951715,73.15087257564423L77.47134065524631,73.36765259850789L78.45758236097548,73.03260596182272L79.44382406670464,72.56118485773418L80.43006577243382,72.7942082790079L81.41630747816298,69.72646296520149L82.40254918389215,67.57735639499319L83.3887908896213,66.97669208876552L84.37503259535048,63.64878559282799L85.36127430107963,65.76598687104787L86.34751600680882,57.087179859690096L87.33375771253799,56.347341618369654L88.31999941826714,54.33178842079721L89.30624112399632,50.685515143193044L90.29248282972547,50.31078863292166L91.27872453545464,54.9938937148066L92.26496624118381,52.74057557394852L93.25120794691298,47.988868129541316L94.23744965264214,42.865514121775504L95.22369135837131,44.76662934107168L96.20993306410047,47.81289320634255L97.19617476982964,42.72473576392716L98.18241647555881,41.60326257032338L99.16865818128798,41.92638150682336L100.15489988701714,43.303482524695255L101.14114159274631,46.845757851854984L102.12738329847548,41.95102860013273L103.11362500420464,38.035245384326004L104.09986670993382,40.800722154777105L105.08610841566298,37.11500035921185L106.07235012139215,38.437463156566366L107.0585918271213,40.308964826373625L108.04483353285048,36.72159459618629L109.03107523857965,39.64810997445812L110.01731694430882,36.19291075264229L111.00355865003797,35.36088855739442L111.98980035576714,32.76313365066446L112.9760420614963,30.786621164823714L113.96228376722547,29.30710261137213L114.94852547295466,27.920104915191416L115.93476717868381,28.64095247448458L116.92100888441298,27.38718480906593L117.90725059014214,26.38417067840342L118.89349229587131,25.581759374943772L119.87973400160047,30.32947602964427L120.86597570732965,28.73800365542391L121.85221741305881,27.464825756917122L122.83845911878798,26.446283438668246L123.82470082451714,25.631449584425326L124.81094253024631,25.488039641816357L125.79718423597546,25.169928831563567L126.78342594170465,24.6103658991521L127.76966764743382,24.36609840946437L128.755909353163,23.967301561593814L129.74215105889215,23.953338367540937L130.7283927646213,23.637093528105055L131.71463447035046,23.384097656574937L132.70087617607965,23.18170095936273L133.6871178818088,23.01978360160058L134.673359587538,22.890249715395697L135.65960129326714,24.10861117113302L136.6458429989963,23.76131177101547L137.6320847047255,23.483472250926752L138.61832641045464,23.26120063485922L139.6045681161838,23.08338334200735L140.59080982191298,22.94112950772731L141.57705152764214,24.759463573248297L142.5632932333713,24.28199369271718L143.54953493910048,23.900017788294207L144.53577664482964,23.594437064757017L145.52201835055882,23.349972485928106L146.50826005628798,23.154400822865483L147.49450176201714,22.997943492415715L148.48074346774632,22.8727776280561L149.46698517347548,22.772644936568526L150.45322687920464,22.692538783378552L151.4394685849338,22.628453860826625L152.42571029066298,22.577185922785105L153.41195199639216,22.536171572351947L154.3981937021213,22.50336009200541L155.38443540785048,22.47711090772819L156.37067711357963,22.456111560306425L157.35691881930882,22.439312082369014L158.343160525038,22.425872500019096L159.32940223076713,22.415120834139145L160.31564393649631,22.406519501435213L161.30188564222547,22.39963843527204L162.28812734795466,22.39413358234151L163.27436905368378,22.389729699997105L164.26061075941297,22.386206594121575L165.24685246514215,22.383388109421162L166.2330941708713,22.381133321660798L167.2193358766005,22.379329491452495L168.20557758232962,22.377886427285887L169.1918192880588,22.376731975952595L170.178060993788,22.375808414885967L171.16430269951715,22.375069566032636L172.1505444052463,22.37447848695001L173.13678611097546,22.3740056236839L174.12302781670465,22.373627333071L175.10926952243383,22.373324700580667L176.09551122816296,22.373082594588425L177.08175293389215,22.372888909794597L178.0679946396213,22.372733961959568L179.0542363453505,22.372610003691534L180.04047805107962,22.3725108370771L181.0267197568088,22.37243150378555L182.012961462538,22.37236803715234L182.99920316826714,22.372317263845787L183.98544487399633,22.372276645200458L184.97168657972546,22.372244150284274L185.95792828545464,22.372218154351287L186.94416999118383,22.372197357604932L187.93041169691298,22.372180720207837L188.91665340264214,22.37216741029016L189.9028951083713,22.372156762356013L190.88913681410048,22.372148244008685L191.87537851982964,22.37214142933081L192.8616202255588,22.372135977588528L193.84786193128798,22.372131616194707L194.83410363701714,22.372128127079662L195.82034534274632,22.372125335787587L196.80658704847545,22.37212310275399L197.79282875420463,22.372121316327053L198.77907045993382,22.372119887185534L199.76531216566298,22.372118743872306L200.75155387139216,22.372117829221708L201.7377955771213,22.372117097501274L202.72403728285047,22.372116512124904L203.71027898857966,22.37211604382381L204.69652069430882,22.372115669182932L205.682762400038,22.372115369470237L206.66900410576713,22.372115129700035L207.65524581149631,22.372114937883936L208.64148751722547,22.372114784431034L209.62772922295466,22.372114661668718L210.6139709286838,22.372114563458865L211.60021263441297,22.37211448489097L212.58645434014215,22.372114422036645L213.5726960458713,22.372114371753185L214.55893775160047,22.372114331526433L215.54517945732965,22.37211429934507L216.5314211630588,22.37211427359992L217.517662868788,22.372114253003815L218.50390457451712,22.372114236526926L219.4901462802463,22.37211422334545L220.47638798597546,22.372114212800227L221.46262969170465,22.372114204364067L222.44887139743383,22.372114197615133L223.43511310316296,22.372114192216003L224.42135480889215,22.37211418789667L225.4075965146213,22.372114184441216L226.3938382203505,22.372114181676864L227.38007992607965,22.3721141794654L228.3663216318088,22.372114177696176L229.352563337538,22.37211417628083L230.33880504326714,22.37211417514854L231.3250467489963,22.37211417424274L232.31128845472549,22.37211417351807L233.29753016045464,22.372114172938353L234.28377186618383,22.37211417247454L235.27001357191295,22.37211417210355L236.25625527764214,22.372114171806714L237.2424969833713,22.372114171569223L238.22873868910048,22.372114171379252L239.21498039482967,22.37211417122728L240.2012221005588,22.37211417110572L241.18746380628798,22.372114171008462L242.17370551201714,22.372114170930672L243.15994721774632,22.37211417086843L244.14618892347548,22.372114170818605L245.13243062920463,22.372114170778787L246.11867233493382,22.372114170746897L247.10491404066298,22.37211417072143L248.09115574639216,22.372114170700996L249.0773974521213,22.372114170684682L250.06363915785047,22.372114170671637L251.04988086357966,22.372114170661206L252.03612256930882,22.37211417065282L253.02236427503797,22.37211417064617L254.00860598076713,22.3721141706408L254.9948476864963,22.372114170636507L255.9810893922255,22.372114170633125L256.9673310979546,22.37211417063037L257.9535728036838,22.37211417062818L258.93981450941294,22.372114170626418L259.9260562151421,22.372114170625025L260.9122979208713,22.372114170623888L261.8985396266005,22.372114170623007" fill="none"></path></g></g></g></g><g opacity="0.2"><g><g><g><path style="fill: none;" stroke="rgb(255, 112, 67)" stroke-width="2px" d="M32.10422219170464,131.69039932250976L33.09046389743381,129.14811362130303L34.07670560316298,126.60582792009626L35.06294730889215,128.1311993408203L36.04918901462131,128.63965648106165L37.035430720350476,126.60582792009626L38.02167242607964,118.47051367623465L39.00791413180881,122.53817079816545L39.994155837537974,117.9620565359933L40.980397543267145,124.0635422188895L41.966639248996316,112.8774851335798L42.95288095472548,121.01279937744141L43.93912266045464,109.8267422921317L44.925364366183814,118.97897081647601L45.91160607191298,110.33519943237305L46.89784777764214,113.38594227382114L47.88408948337131,110.84365657261439L48.870331189100476,101.18297090802874L49.85657289482964,105.75908517020089L50.84281460055881,84.40388528006417L51.829056306287974,98.64068520682198L52.81529801201714,105.25062802995954L53.801539717746316,91.01382810320173L54.78778142347548,86.43771384102959L55.77402312920464,97.62377092633929L56.760264834933814,88.47154240199497L57.74650654066298,86.94617098127092L58.73274824639215,101.6914280482701L59.71898995212131,94.57302808489118L60.705231657850476,92.53919952392579L61.69147336357965,79.82777101789203L62.67771506930881,98.64068520682198L63.663956775037974,87.45462812151227L64.65019848076714,84.91234242030552L65.63644018649632,80.84468529837473L66.62268189222547,85.42079956054687L67.60892359795464,66.60788537161692L68.59516530368381,85.42079956054687L69.58140700941297,68.13325679234097L70.56764871514214,64.57405681065151L71.55389042087131,84.91234242030552L72.54013212660047,77.28548531668527L73.52637383232964,70.67554249354771L74.51261553805882,38.642742658342655L75.49885724378798,77.79394245692663L76.48509894951715,81.35314243861608L77.47134065524631,74.23474247523717L78.45758236097548,71.6924567740304L79.44382406670464,70.67554249354771L80.43006577243382,73.72628533499581L81.41630747816298,57.45565684727259L82.40254918389215,58.98102826799665L83.3887908896213,64.57405681065151L84.37503259535048,50.33725688389369L85.36127430107963,74.23474247523717L86.34751600680882,22.372114170619398L87.33375771253799,53.3879997253418L88.31999941826714,46.269599761962894L89.30624112399632,36.10045695713589L90.29248282972547,48.81188546316963L91.27872453545464,73.72628533499581L92.26496624118381,43.72731406075613L93.25120794691298,28.98205699375697L94.23744965264214,22.372114170619398L95.22369135837131,52.37108544485909L96.20993306410047,59.99794254847936L97.19617476982964,22.372114170619398L98.18241647555881,37.117371237618585L99.16865818128798,43.21885692051478L100.15489988701714,48.81188546316963L101.14114159274631,61.01485682896205L102.12738329847548,22.372114170619398L103.11362500420464,22.372114170619398L104.09986670993382,51.86262830461776L105.08610841566298,22.372114170619398L106.07235012139215,43.72731406075613L107.0585918271213,47.794971182686936L108.04483353285048,22.372114170619398L109.03107523857965,51.354171164376396L110.01731694430882,22.372114170619398L111.00355865003797,32.03279983520508L111.98980035576714,22.372114170619398L112.9760420614963,22.880571310860773L113.96228376722547,23.38902845110212L114.94852547295466,22.372114170619398L115.93476717868381,31.524342694963735L116.92100888441298,22.372114170619398L117.90725059014214,22.372114170619398L118.89349229587131,22.372114170619398L119.87973400160047,49.32034260341098L120.86597570732965,22.372114170619398L121.85221741305881,22.372114170619398L122.83845911878798,22.372114170619398L123.82470082451714,22.372114170619398L124.81094253024631,24.914399871826163L125.79718423597546,23.897485591343468L126.78342594170465,22.372114170619398L127.76966764743382,23.38902845110212L128.755909353163,22.372114170619398L129.74215105889215,23.897485591343468L130.7283927646213,22.372114170619398L131.71463447035046,22.372114170619398L132.70087617607965,22.372114170619398L133.6871178818088,22.372114170619398L134.673359587538,22.372114170619398L135.65960129326714,28.98205699375697L136.6458429989963,22.372114170619398L137.6320847047255,22.372114170619398L138.61832641045464,22.372114170619398L139.6045681161838,22.372114170619398L140.59080982191298,22.372114170619398L141.57705152764214,32.03279983520508L142.5632932333713,22.372114170619398L143.54953493910048,22.372114170619398L144.53577664482964,22.372114170619398L145.52201835055882,22.372114170619398L146.50826005628798,22.372114170619398L147.49450176201714,22.372114170619398L148.48074346774632,22.372114170619398L149.46698517347548,22.372114170619398L150.45322687920464,22.372114170619398L151.4394685849338,22.372114170619398L152.42571029066298,22.372114170619398L153.41195199639216,22.372114170619398L154.3981937021213,22.372114170619398L155.38443540785048,22.372114170619398L156.37067711357963,22.372114170619398L157.35691881930882,22.372114170619398L158.343160525038,22.372114170619398L159.32940223076713,22.372114170619398L160.31564393649631,22.372114170619398L161.30188564222547,22.372114170619398L162.28812734795466,22.372114170619398L163.27436905368378,22.372114170619398L164.26061075941297,22.372114170619398L165.24685246514215,22.372114170619398L166.2330941708713,22.372114170619398L167.2193358766005,22.372114170619398L168.20557758232962,22.372114170619398L169.1918192880588,22.372114170619398L170.178060993788,22.372114170619398L171.16430269951715,22.372114170619398L172.1505444052463,22.372114170619398L173.13678611097546,22.372114170619398L174.12302781670465,22.372114170619398L175.10926952243383,22.372114170619398L176.09551122816296,22.372114170619398L177.08175293389215,22.372114170619398L178.0679946396213,22.372114170619398L179.0542363453505,22.372114170619398L180.04047805107962,22.372114170619398L181.0267197568088,22.372114170619398L182.012961462538,22.372114170619398L182.99920316826714,22.372114170619398L183.98544487399633,22.372114170619398L184.97168657972546,22.372114170619398L185.95792828545464,22.372114170619398L186.94416999118383,22.372114170619398L187.93041169691298,22.372114170619398L188.91665340264214,22.372114170619398L189.9028951083713,22.372114170619398L190.88913681410048,22.372114170619398L191.87537851982964,22.372114170619398L192.8616202255588,22.372114170619398L193.84786193128798,22.372114170619398L194.83410363701714,22.372114170619398L195.82034534274632,22.372114170619398L196.80658704847545,22.372114170619398L197.79282875420463,22.372114170619398L198.77907045993382,22.372114170619398L199.76531216566298,22.372114170619398L200.75155387139216,22.372114170619398L201.7377955771213,22.372114170619398L202.72403728285047,22.372114170619398L203.71027898857966,22.372114170619398L204.69652069430882,22.372114170619398L205.682762400038,22.372114170619398L206.66900410576713,22.372114170619398L207.65524581149631,22.372114170619398L208.64148751722547,22.372114170619398L209.62772922295466,22.372114170619398L210.6139709286838,22.372114170619398L211.60021263441297,22.372114170619398L212.58645434014215,22.372114170619398L213.5726960458713,22.372114170619398L214.55893775160047,22.372114170619398L215.54517945732965,22.372114170619398L216.5314211630588,22.372114170619398L217.517662868788,22.372114170619398L218.50390457451712,22.372114170619398L219.4901462802463,22.372114170619398L220.47638798597546,22.372114170619398L221.46262969170465,22.372114170619398L222.44887139743383,22.372114170619398L223.43511310316296,22.372114170619398L224.42135480889215,22.372114170619398L225.4075965146213,22.372114170619398L226.3938382203505,22.372114170619398L227.38007992607965,22.372114170619398L228.3663216318088,22.372114170619398L229.352563337538,22.372114170619398L230.33880504326714,22.372114170619398L231.3250467489963,22.372114170619398L232.31128845472549,22.372114170619398L233.29753016045464,22.372114170619398L234.28377186618383,22.372114170619398L235.27001357191295,22.372114170619398L236.25625527764214,22.372114170619398L237.2424969833713,22.372114170619398L238.22873868910048,22.372114170619398L239.21498039482967,22.372114170619398L240.2012221005588,22.372114170619398L241.18746380628798,22.372114170619398L242.17370551201714,22.372114170619398L243.15994721774632,22.372114170619398L244.14618892347548,22.372114170619398L245.13243062920463,22.372114170619398L246.11867233493382,22.372114170619398L247.10491404066298,22.372114170619398L248.09115574639216,22.372114170619398L249.0773974521213,22.372114170619398L250.06363915785047,22.372114170619398L251.04988086357966,22.372114170619398L252.03612256930882,22.372114170619398L253.02236427503797,22.372114170619398L254.00860598076713,22.372114170619398L254.9948476864963,22.372114170619398L255.9810893922255,22.372114170619398L256.9673310979546,22.372114170619398L257.9535728036838,22.372114170619398L258.93981450941294,22.372114170619398L259.9260562151421,22.372114170619398L260.9122979208713,22.372114170619398L261.8985396266005,22.372114170619398" fill="none"></path></g></g></g></g></g></g><g transform="translate(41, 177)" clip-path="url(#clip_1)"><clipPath id="clip_1"><rect width="288" height="22"></rect></clipPath><g><g><line x1="0" y1="0" x2="0" y2="5" style="visibility: inherit;" fill="rgb(0, 0, 0)" stroke="rgb(204, 204, 204)" stroke-width="1px"></line><line x1="32.10422219170464" y1="0" x2="32.10422219170464" y2="5" style="visibility: inherit;" fill="rgb(0, 0, 0)" stroke="rgb(204, 204, 204)" stroke-width="1px"></line><line x1="64.20844438340929" y1="0" x2="64.20844438340929" y2="5" style="visibility: inherit;" fill="rgb(0, 0, 0)" stroke="rgb(204, 204, 204)" stroke-width="1px"></line><line x1="96.31266657511392" y1="0" x2="96.31266657511392" y2="5" style="visibility: inherit;" fill="rgb(0, 0, 0)" stroke="rgb(204, 204, 204)" stroke-width="1px"></line><line x1="128.41688876681857" y1="0" x2="128.41688876681857" y2="5" style="visibility: inherit;" fill="rgb(0, 0, 0)" stroke="rgb(204, 204, 204)" stroke-width="1px"></line><line x1="160.52111095852322" y1="0" x2="160.52111095852322" y2="5" style="visibility: inherit;" fill="rgb(0, 0, 0)" stroke="rgb(204, 204, 204)" stroke-width="1px"></line><line x1="192.62533315022785" y1="0" x2="192.62533315022785" y2="5" style="visibility: inherit;" fill="rgb(0, 0, 0)" stroke="rgb(204, 204, 204)" stroke-width="1px"></line><line x1="224.72955534193252" y1="0" x2="224.72955534193252" y2="5" style="visibility: inherit;" fill="rgb(0, 0, 0)" stroke="rgb(204, 204, 204)" stroke-width="1px"></line><line x1="256.83377753363715" y1="0" x2="256.83377753363715" y2="5" style="visibility: inherit;" fill="rgb(0, 0, 0)" stroke="rgb(204, 204, 204)" stroke-width="1px"></line><line x1="288.9379997253418" y1="0" x2="288.9379997253418" y2="5" style="visibility: inherit;" fill="rgb(0, 0, 0)" stroke="rgb(204, 204, 204)" stroke-width="1px"></line></g><g transform="translate(0, 8)"><text style="text-anchor: middle; visibility: hidden; font-family: &quot;Helvetica Neue&quot;, sans-serif; font-size: 12px; font-weight: 200;" x="0" y="0" dx="0em" dy="0.95em" fill="rgb(50, 49, 63)" stroke="none" stroke-width="1px">-200k</text><text style="text-anchor: middle; visibility: inherit; font-family: &quot;Helvetica Neue&quot;, sans-serif; font-size: 12px; font-weight: 200;" x="32.10422219170464" y="0" dx="0em" dy="0.95em" fill="rgb(50, 49, 63)" stroke="none" stroke-width="1px">0</text><text style="text-anchor: middle; visibility: hidden; font-family: &quot;Helvetica Neue&quot;, sans-serif; font-size: 12px; font-weight: 200;" x="64.20844438340929" y="0" dx="0em" dy="0.95em" fill="rgb(50, 49, 63)" stroke="none" stroke-width="1px">200k</text><text style="text-anchor: middle; visibility: inherit; font-family: &quot;Helvetica Neue&quot;, sans-serif; font-size: 12px; font-weight: 200;" x="96.31266657511392" y="0" dx="0em" dy="0.95em" fill="rgb(50, 49, 63)" stroke="none" stroke-width="1px">400k</text><text style="text-anchor: middle; visibility: hidden; font-family: &quot;Helvetica Neue&quot;, sans-serif; font-size: 12px; font-weight: 200;" x="128.41688876681857" y="0" dx="0em" dy="0.95em" fill="rgb(50, 49, 63)" stroke="none" stroke-width="1px">600k</text><text style="text-anchor: middle; visibility: inherit; font-family: &quot;Helvetica Neue&quot;, sans-serif; font-size: 12px; font-weight: 200;" x="160.52111095852322" y="0" dx="0em" dy="0.95em" fill="rgb(50, 49, 63)" stroke="none" stroke-width="1px">800k</text><text style="text-anchor: middle; visibility: hidden; font-family: &quot;Helvetica Neue&quot;, sans-serif; font-size: 12px; font-weight: 200;" x="192.62533315022785" y="0" dx="0em" dy="0.95em" fill="rgb(50, 49, 63)" stroke="none" stroke-width="1px">1M</text><text style="text-anchor: middle; visibility: inherit; font-family: &quot;Helvetica Neue&quot;, sans-serif; font-size: 12px; font-weight: 200;" x="224.72955534193252" y="0" dx="0em" dy="0.95em" fill="rgb(50, 49, 63)" stroke="none" stroke-width="1px">1.2M</text><text style="text-anchor: middle; visibility: hidden; font-family: &quot;Helvetica Neue&quot;, sans-serif; font-size: 12px; font-weight: 200;" x="256.83377753363715" y="0" dx="0em" dy="0.95em" fill="rgb(50, 49, 63)" stroke="none" stroke-width="1px">1.4M</text><text style="text-anchor: middle; visibility: hidden; font-family: &quot;Helvetica Neue&quot;, sans-serif; font-size: 12px; font-weight: 200;" x="288.9379997253418" y="0" dx="0em" dy="0.95em" fill="rgb(50, 49, 63)" stroke="none" stroke-width="1px">1.6M</text></g><line x1="0" y1="0" x2="288.9379997253418" y2="0" fill="rgb(0, 0, 0)" stroke="rgb(204, 204, 204)" stroke-width="1px"></line></g></g></g></g></svg>